<svg xmlns="http://www.w3.org/2000/svg" xmlns:xlink="http://www.w3.org/1999/xlink" width="300" zoomAndPan="magnify" viewBox="0 0 224.87999 112.499997" height="150" preserveAspectRatio="xMidYMid meet" version="1.0"><defs><g/><clipPath id="aab4074987"><path d="M 160.238281 14.207031 L 205 14.207031 L 205 80 L 160.238281 80 Z M 160.238281 14.207031 " clip-rule="nonzero"/></clipPath><clipPath id="61a32b6eec"><path d="M 190 57 L 219.972656 57 L 219.972656 85.886719 L 190 85.886719 Z M 190 57 " clip-rule="nonzero"/></clipPath></defs><g clip-path="url(#aab4074987)"><path fill="#fafafa" d="M 201.898438 53.484375 C 202.328125 53.699219 202.59375 54.125 202.59375 54.601562 C 202.59375 55.160156 203.054688 55.617188 203.617188 55.617188 C 204.183594 55.617188 204.640625 55.160156 204.640625 54.601562 C 204.640625 53.347656 203.9375 52.222656 202.808594 51.664062 L 190.523438 45.628906 L 189.976562 41.621094 C 191.601562 39.761719 192.902344 37.453125 193.761719 35.148438 C 194.972656 35.085938 195.941406 34.085938 195.941406 32.863281 L 195.941406 28.425781 C 195.941406 27.65625 195.546875 26.957031 194.9375 26.539062 L 194.9375 25.761719 C 194.9375 19.394531 189.71875 14.210938 183.304688 14.210938 L 181.617188 14.210938 C 175.203125 14.210938 169.984375 19.394531 169.984375 25.761719 L 169.984375 26.539062 C 169.375 26.957031 168.980469 27.65625 168.980469 28.425781 L 168.980469 32.863281 C 168.980469 34.085938 169.949219 35.085938 171.160156 35.148438 C 172.019531 37.453125 173.320312 39.761719 174.945312 41.621094 L 174.398438 45.625 L 162.113281 51.664062 C 160.984375 52.222656 160.28125 53.347656 160.28125 54.601562 L 160.28125 67.816406 C 160.28125 67.828125 160.28125 67.835938 160.28125 67.84375 C 160.28125 67.878906 160.289062 67.917969 160.292969 67.953125 C 160.296875 67.984375 160.300781 68.015625 160.308594 68.042969 C 160.316406 68.078125 160.324219 68.105469 160.335938 68.136719 C 160.347656 68.167969 160.355469 68.203125 160.371094 68.230469 C 160.382812 68.261719 160.398438 68.285156 160.414062 68.3125 C 160.429688 68.34375 160.445312 68.375 160.464844 68.402344 C 160.484375 68.425781 160.507812 68.449219 160.527344 68.476562 C 160.550781 68.5 160.570312 68.527344 160.59375 68.546875 C 160.617188 68.570312 160.644531 68.589844 160.667969 68.609375 C 160.695312 68.632812 160.722656 68.652344 160.75 68.671875 C 160.773438 68.6875 160.800781 68.699219 160.828125 68.710938 C 160.863281 68.730469 160.894531 68.75 160.933594 68.761719 C 160.941406 68.765625 160.945312 68.769531 160.953125 68.773438 L 172.046875 72.765625 C 172.160156 72.808594 172.28125 72.828125 172.394531 72.828125 C 172.8125 72.828125 173.207031 72.570312 173.355469 72.15625 C 173.550781 71.628906 173.277344 71.046875 172.746094 70.855469 L 162.328125 67.105469 L 162.328125 54.601562 C 162.328125 54.125 162.59375 53.699219 163.023438 53.488281 L 174.820312 47.6875 L 179.351562 51.652344 L 175.648438 73.089844 L 175.644531 73.125 C 175.578125 73.625 175.757812 74.121094 176.128906 74.460938 L 181.445312 79.339844 C 181.730469 79.597656 182.097656 79.730469 182.460938 79.730469 C 182.828125 79.730469 183.191406 79.597656 183.476562 79.339844 L 188.792969 74.460938 C 189.164062 74.121094 189.34375 73.625 189.277344 73.125 L 185.574219 51.652344 L 190.101562 47.6875 Z M 173.046875 34.34375 C 172.777344 33.609375 172.070312 33.117188 171.28125 33.117188 C 171.144531 33.117188 171.027344 33.003906 171.027344 32.863281 L 171.027344 28.425781 C 171.027344 28.289062 171.136719 28.1875 171.246094 28.171875 C 171.804688 28.089844 172.191406 27.574219 172.109375 27.019531 C 172.097656 26.921875 172.0625 26.832031 172.023438 26.746094 C 172.027344 26.71875 172.03125 26.695312 172.03125 26.664062 L 172.03125 25.761719 C 172.03125 20.515625 176.332031 16.242188 181.617188 16.242188 L 183.304688 16.242188 C 188.589844 16.242188 192.890625 20.515625 192.890625 25.761719 L 192.890625 26.664062 C 192.890625 26.695312 192.894531 26.71875 192.898438 26.746094 C 192.859375 26.832031 192.828125 26.921875 192.8125 27.019531 C 192.730469 27.574219 193.117188 28.089844 193.675781 28.171875 C 193.785156 28.1875 193.894531 28.289062 193.894531 28.425781 L 193.894531 32.863281 C 193.894531 33 193.777344 33.117188 193.636719 33.117188 C 192.851562 33.117188 192.144531 33.609375 191.878906 34.34375 C 190.25 38.796875 186.609375 43.589844 182.460938 43.589844 C 178.3125 43.589844 174.671875 38.796875 173.046875 34.34375 Z M 187.207031 73.148438 L 182.460938 77.5 L 177.714844 73.148438 L 181.152344 53.230469 L 181.765625 53.769531 C 181.964844 53.945312 182.210938 54.03125 182.460938 54.03125 C 182.710938 54.03125 182.957031 53.945312 183.15625 53.765625 L 183.769531 53.230469 Z M 182.460938 51.664062 L 176.378906 46.34375 C 176.382812 46.300781 176.386719 46.261719 176.382812 46.222656 L 176.769531 43.394531 C 178.457031 44.761719 180.386719 45.621094 182.460938 45.621094 C 184.535156 45.621094 186.464844 44.761719 188.152344 43.394531 L 188.539062 46.222656 C 188.535156 46.261719 188.539062 46.304688 188.542969 46.34375 Z M 182.460938 51.664062 " fill-opacity="1" fill-rule="nonzero"/></g><g clip-path="url(#61a32b6eec)"><path fill="#fafafa" d="M 219.546875 70.453125 C 219.277344 70.089844 218.878906 69.851562 218.429688 69.785156 L 217.554688 69.652344 C 217.515625 69.648438 217.410156 69.632812 217.386719 69.488281 C 217.363281 69.347656 217.457031 69.296875 217.492188 69.28125 L 218.277344 68.875 C 218.679688 68.667969 218.980469 68.316406 219.117188 67.882812 C 219.253906 67.453125 219.214844 66.992188 219.003906 66.59375 L 217.230469 63.203125 C 216.796875 62.375 215.765625 62.050781 214.929688 62.480469 L 214.144531 62.886719 C 214.109375 62.90625 214.015625 62.953125 213.910156 62.851562 C 213.808594 62.75 213.855469 62.65625 213.871094 62.621094 L 214.269531 61.835938 C 214.6875 61 214.347656 59.980469 213.503906 59.5625 L 210.066406 57.855469 C 209.226562 57.4375 208.199219 57.777344 207.777344 58.613281 L 207.382812 59.402344 C 207.363281 59.4375 207.320312 59.53125 207.171875 59.511719 C 207.027344 59.488281 207.011719 59.386719 207.003906 59.347656 L 206.859375 58.476562 C 206.703125 57.554688 205.824219 56.929688 204.898438 57.085938 L 201.105469 57.710938 C 200.65625 57.785156 200.261719 58.027344 199.996094 58.398438 C 199.730469 58.765625 199.628906 59.214844 199.703125 59.660156 L 199.847656 60.523438 C 199.851562 60.5625 199.871094 60.667969 199.742188 60.734375 C 199.613281 60.800781 199.539062 60.726562 199.507812 60.699219 L 198.878906 60.082031 C 198.207031 59.429688 197.128906 59.4375 196.46875 60.101562 L 193.769531 62.824219 C 193.449219 63.148438 193.273438 63.574219 193.277344 64.027344 C 193.28125 64.480469 193.460938 64.902344 193.789062 65.222656 L 194.414062 65.835938 C 194.445312 65.863281 194.519531 65.9375 194.453125 66.066406 C 194.390625 66.195312 194.285156 66.179688 194.246094 66.171875 L 193.375 66.042969 C 192.445312 65.90625 191.574219 66.542969 191.433594 67.464844 L 190.863281 71.246094 C 190.722656 72.167969 191.363281 73.03125 192.292969 73.171875 L 193.167969 73.300781 C 193.207031 73.308594 193.3125 73.324219 193.335938 73.464844 C 193.359375 73.609375 193.265625 73.65625 193.230469 73.675781 L 192.449219 74.078125 C 192.042969 74.289062 191.746094 74.640625 191.609375 75.070312 C 191.46875 75.503906 191.511719 75.960938 191.71875 76.363281 L 193.492188 79.75 C 193.703125 80.152344 194.058594 80.449219 194.492188 80.585938 C 194.925781 80.722656 195.386719 80.683594 195.792969 80.472656 L 196.582031 80.066406 C 196.617188 80.046875 196.710938 80 196.8125 80.101562 C 196.917969 80.203125 196.871094 80.296875 196.851562 80.332031 L 196.457031 81.121094 C 196.035156 81.957031 196.378906 82.976562 197.21875 83.394531 L 200.65625 85.097656 C 201.5 85.515625 202.523438 85.175781 202.945312 84.339844 L 203.339844 83.554688 C 203.359375 83.519531 203.40625 83.425781 203.550781 83.445312 C 203.695312 83.46875 203.710938 83.574219 203.71875 83.609375 L 203.863281 84.476562 C 204 85.304688 204.726562 85.894531 205.542969 85.894531 C 205.636719 85.894531 205.730469 85.886719 205.824219 85.871094 L 209.621094 85.246094 C 210.070312 85.171875 210.460938 84.925781 210.726562 84.558594 C 210.992188 84.191406 211.097656 83.742188 211.023438 83.296875 L 210.875 82.429688 C 210.871094 82.390625 210.851562 82.289062 210.980469 82.222656 C 211.109375 82.15625 211.1875 82.230469 211.214844 82.257812 L 211.84375 82.871094 C 212.515625 83.527344 213.597656 83.519531 214.257812 82.851562 L 216.957031 80.128906 C 217.617188 79.464844 217.605469 78.390625 216.9375 77.734375 L 216.308594 77.121094 C 216.28125 77.09375 216.207031 77.019531 216.269531 76.890625 C 216.335938 76.761719 216.441406 76.777344 216.480469 76.78125 L 217.351562 76.914062 C 217.800781 76.980469 218.25 76.867188 218.617188 76.601562 C 218.984375 76.332031 219.222656 75.9375 219.289062 75.488281 L 219.863281 71.710938 C 219.929688 71.265625 219.816406 70.816406 219.546875 70.453125 Z M 217.316406 74.851562 L 216.78125 74.773438 C 215.804688 74.625 214.882812 75.101562 214.4375 75.980469 C 213.996094 76.863281 214.164062 77.878906 214.871094 78.570312 L 215.257812 78.945312 L 213.035156 81.1875 L 212.652344 80.808594 C 211.945312 80.117188 210.917969 79.964844 210.039062 80.417969 C 209.160156 80.871094 208.695312 81.792969 208.859375 82.765625 L 208.945312 83.292969 L 205.824219 83.808594 L 205.734375 83.277344 C 205.574219 82.304688 204.835938 81.582031 203.855469 81.4375 C 203.734375 81.417969 203.617188 81.410156 203.503906 81.410156 C 202.660156 81.410156 201.898438 81.871094 201.507812 82.644531 L 201.265625 83.128906 L 198.4375 81.726562 L 198.683594 81.238281 C 199.125 80.359375 198.957031 79.34375 198.25 78.652344 C 197.542969 77.960938 196.519531 77.808594 195.636719 78.261719 L 195.152344 78.511719 L 193.695312 75.726562 L 194.175781 75.480469 C 195.054688 75.023438 195.515625 74.105469 195.355469 73.132812 C 195.191406 72.160156 194.453125 71.4375 193.472656 71.292969 L 192.9375 71.210938 L 193.40625 68.101562 L 193.941406 68.183594 C 194.921875 68.328125 195.839844 67.855469 196.285156 66.972656 C 196.726562 66.09375 196.558594 65.078125 195.851562 64.386719 L 195.464844 64.007812 L 197.6875 61.769531 L 198.074219 62.148438 C 198.78125 62.839844 199.804688 62.992188 200.683594 62.535156 C 201.566406 62.082031 202.027344 61.160156 201.867188 60.191406 L 201.777344 59.660156 L 204.894531 59.144531 L 204.984375 59.679688 C 205.148438 60.652344 205.886719 61.375 206.867188 61.519531 C 207.851562 61.667969 208.769531 61.191406 209.210938 60.3125 L 209.457031 59.824219 L 212.285156 61.230469 L 212.042969 61.710938 C 211.597656 62.59375 211.769531 63.609375 212.476562 64.300781 C 213.183594 64.992188 214.207031 65.144531 215.085938 64.6875 L 215.570312 64.441406 L 217.03125 67.230469 L 216.550781 67.476562 C 215.667969 67.929688 215.207031 68.851562 215.367188 69.824219 C 215.53125 70.792969 216.269531 71.515625 217.25 71.664062 L 217.789062 71.742188 Z M 217.316406 74.851562 " fill-opacity="1" fill-rule="nonzero"/></g><path fill="#fafafa" d="M 209.050781 64.144531 C 204.980469 62.125 200.011719 63.769531 197.980469 67.8125 C 195.945312 71.859375 197.601562 76.789062 201.671875 78.808594 C 202.855469 79.394531 204.109375 79.671875 205.347656 79.671875 C 208.378906 79.671875 211.300781 78.011719 212.746094 75.140625 C 213.730469 73.183594 213.890625 70.960938 213.191406 68.882812 C 212.492188 66.808594 211.023438 65.125 209.050781 64.144531 Z M 210.914062 74.234375 C 209.382812 77.273438 205.648438 78.511719 202.585938 76.992188 C 199.527344 75.472656 198.28125 71.761719 199.808594 68.722656 C 200.550781 67.25 201.824219 66.152344 203.398438 65.628906 C 204.042969 65.417969 204.707031 65.308594 205.367188 65.308594 C 206.316406 65.308594 207.261719 65.53125 208.136719 65.964844 C 209.621094 66.699219 210.726562 67.964844 211.25 69.527344 C 211.773438 71.089844 211.65625 72.761719 210.914062 74.234375 Z M 210.914062 74.234375 " fill-opacity="1" fill-rule="nonzero"/><g fill="#fafafa" fill-opacity="0.4"><g transform="translate(7.258608, 81.122615)"><g><path d="M 7.03125 -32.515625 C 5.425781 -32.515625 4.101562 -33.03125 3.0625 -34.0625 C 2.03125 -35.09375 1.515625 -36.410156 1.515625 -38.015625 C 1.515625 -39.660156 2.03125 -40.988281 3.0625 -42 C 4.101562 -43.019531 5.425781 -43.53125 7.03125 -43.53125 C 8.632812 -43.53125 9.953125 -43.019531 10.984375 -42 C 12.015625 -40.988281 12.53125 -39.660156 12.53125 -38.015625 C 12.53125 -36.453125 12.015625 -35.144531 10.984375 -34.09375 C 9.953125 -33.039062 8.632812 -32.515625 7.03125 -32.515625 Z M 2.453125 0 C 2.179688 0 1.96875 -0.078125 1.8125 -0.234375 C 1.65625 -0.390625 1.578125 -0.601562 1.578125 -0.875 L 1.578125 -29.578125 C 1.578125 -29.847656 1.65625 -30.0625 1.8125 -30.21875 C 1.96875 -30.375 2.179688 -30.453125 2.453125 -30.453125 L 11.71875 -30.453125 C 11.988281 -30.453125 12.203125 -30.375 12.359375 -30.21875 C 12.515625 -30.0625 12.59375 -29.847656 12.59375 -29.578125 L 12.59375 -0.875 C 12.59375 -0.601562 12.515625 -0.390625 12.359375 -0.234375 C 12.203125 -0.078125 11.988281 0 11.71875 0 Z M 2.453125 0 "/></g></g></g><g fill="#fafafa" fill-opacity="0.4"><g transform="translate(24.013735, 81.122615)"><g><path d="M 2.8125 0 C 2.539062 0 2.328125 -0.078125 2.171875 -0.234375 C 2.015625 -0.390625 1.9375 -0.601562 1.9375 -0.875 L 1.9375 -40.125 C 1.9375 -40.394531 2.015625 -40.609375 2.171875 -40.765625 C 2.328125 -40.921875 2.539062 -41 2.8125 -41 L 12.0625 -41 C 12.34375 -41 12.5625 -40.921875 12.71875 -40.765625 C 12.875 -40.609375 12.953125 -40.394531 12.953125 -40.125 L 12.953125 -9.78125 C 12.953125 -9.550781 13.066406 -9.4375 13.296875 -9.4375 L 28 -9.4375 C 28.269531 -9.4375 28.484375 -9.359375 28.640625 -9.203125 C 28.796875 -9.046875 28.875 -8.828125 28.875 -8.546875 L 28.875 -0.875 C 28.875 -0.601562 28.796875 -0.390625 28.640625 -0.234375 C 28.484375 -0.078125 28.269531 0 28 0 Z M 2.8125 0 "/></g></g></g><g fill="#fafafa" fill-opacity="0.4"><g transform="translate(56.586637, 81.122615)"><g><path d="M 28.53125 -18.984375 C 28.601562 -17.421875 28.640625 -16.226562 28.640625 -15.40625 L 28.59375 -13.359375 C 28.59375 -12.773438 28.296875 -12.484375 27.703125 -12.484375 L 12.765625 -12.484375 C 12.578125 -12.484375 12.484375 -12.40625 12.484375 -12.25 C 12.484375 -11.8125 12.5625 -11.359375 12.71875 -10.890625 C 13.144531 -9.566406 14.019531 -8.90625 15.34375 -8.90625 C 16.59375 -8.90625 17.453125 -9.375 17.921875 -10.3125 C 18.234375 -10.820312 18.601562 -11.015625 19.03125 -10.890625 L 27.421875 -9.3125 C 27.691406 -9.269531 27.882812 -9.148438 28 -8.953125 C 28.113281 -8.765625 28.132812 -8.535156 28.0625 -8.265625 C 27.082031 -5.410156 25.535156 -3.238281 23.421875 -1.75 C 21.316406 -0.269531 18.703125 0.46875 15.578125 0.46875 C 11.640625 0.46875 8.554688 -0.359375 6.328125 -2.015625 C 4.097656 -3.679688 2.613281 -6.132812 1.875 -9.375 C 1.476562 -11.050781 1.28125 -13.003906 1.28125 -15.234375 C 1.207031 -16.910156 1.328125 -18.644531 1.640625 -20.4375 C 2.148438 -23.644531 3.582031 -26.191406 5.9375 -28.078125 C 8.300781 -29.972656 11.257812 -30.921875 14.8125 -30.921875 C 17.394531 -30.921875 19.691406 -30.414062 21.703125 -29.40625 C 23.710938 -28.394531 25.3125 -26.976562 26.5 -25.15625 C 27.695312 -23.34375 28.375 -21.285156 28.53125 -18.984375 Z M 14.9375 -21.5 C 13.6875 -21.5 12.90625 -20.796875 12.59375 -19.390625 L 12.484375 -18.390625 C 12.484375 -18.160156 12.578125 -18.046875 12.765625 -18.046875 L 17.109375 -18.046875 C 17.296875 -18.046875 17.390625 -18.160156 17.390625 -18.390625 L 17.28125 -19.390625 C 17.164062 -20.054688 16.898438 -20.570312 16.484375 -20.9375 C 16.078125 -21.3125 15.5625 -21.5 14.9375 -21.5 Z M 14.9375 -21.5 "/></g></g></g><g fill="#fafafa" fill-opacity="0.4"><g transform="translate(88.925212, 81.122615)"><g><path d="M 14.40625 -30.921875 C 16.988281 -30.921875 19.3125 -30.492188 21.375 -29.640625 C 23.445312 -28.785156 25.066406 -27.59375 26.234375 -26.0625 C 27.410156 -24.539062 28 -22.84375 28 -20.96875 L 28 -0.875 C 28 -0.601562 27.921875 -0.390625 27.765625 -0.234375 C 27.609375 -0.078125 27.394531 0 27.125 0 L 17.859375 0 C 17.585938 0 17.375 -0.078125 17.21875 -0.234375 C 17.0625 -0.390625 16.984375 -0.601562 16.984375 -0.875 L 16.984375 -2.453125 C 16.984375 -2.609375 16.929688 -2.695312 16.828125 -2.71875 C 16.734375 -2.738281 16.648438 -2.671875 16.578125 -2.515625 C 15.285156 -0.523438 13.019531 0.46875 9.78125 0.46875 C 7.125 0.46875 4.945312 -0.210938 3.25 -1.578125 C 1.550781 -2.941406 0.703125 -5.25 0.703125 -8.5 C 0.703125 -11.9375 1.71875 -14.335938 3.75 -15.703125 C 5.78125 -17.066406 8.847656 -17.75 12.953125 -17.75 L 16.640625 -17.75 C 16.867188 -17.75 16.984375 -17.863281 16.984375 -18.09375 L 16.984375 -19.265625 C 16.984375 -19.929688 16.757812 -20.46875 16.3125 -20.875 C 15.863281 -21.289062 15.25 -21.5 14.46875 -21.5 C 13.957031 -21.5 13.503906 -21.390625 13.109375 -21.171875 C 12.722656 -20.960938 12.4375 -20.679688 12.25 -20.328125 C 12.125 -20.054688 11.984375 -19.859375 11.828125 -19.734375 C 11.671875 -19.617188 11.476562 -19.582031 11.25 -19.625 L 1.9375 -20.265625 C 1.34375 -20.347656 1.046875 -20.601562 1.046875 -21.03125 C 1.171875 -22.976562 1.816406 -24.703125 2.984375 -26.203125 C 4.160156 -27.710938 5.742188 -28.875 7.734375 -29.6875 C 9.722656 -30.507812 11.945312 -30.921875 14.40625 -30.921875 Z M 13.9375 -7.328125 C 14.800781 -7.328125 15.523438 -7.5625 16.109375 -8.03125 C 16.691406 -8.5 16.984375 -9.140625 16.984375 -9.953125 L 16.984375 -11.078125 C 16.984375 -11.304688 16.867188 -11.421875 16.640625 -11.421875 L 14.640625 -11.421875 C 13.785156 -11.421875 13.113281 -11.234375 12.625 -10.859375 C 12.132812 -10.492188 11.890625 -9.976562 11.890625 -9.3125 C 11.890625 -8.6875 12.070312 -8.195312 12.4375 -7.84375 C 12.8125 -7.5 13.3125 -7.328125 13.9375 -7.328125 Z M 13.9375 -7.328125 "/></g></g></g><g fill="#fafafa" fill-opacity="0.4"><g transform="translate(121.14661, 81.122615)"><g><path d="M 18.09375 -30.875 C 19.1875 -30.875 20.125 -30.65625 20.90625 -30.21875 C 21.257812 -30.03125 21.398438 -29.660156 21.328125 -29.109375 L 19.921875 -19.96875 C 19.878906 -19.65625 19.769531 -19.457031 19.59375 -19.375 C 19.414062 -19.300781 19.171875 -19.304688 18.859375 -19.390625 C 18.390625 -19.503906 17.84375 -19.5625 17.21875 -19.5625 C 16.519531 -19.5625 15.914062 -19.484375 15.40625 -19.328125 C 14.625 -19.054688 13.96875 -18.617188 13.4375 -18.015625 C 12.914062 -17.410156 12.65625 -16.675781 12.65625 -15.8125 L 12.65625 -0.9375 C 12.65625 -0.664062 12.578125 -0.453125 12.421875 -0.296875 C 12.265625 -0.140625 12.050781 -0.0625 11.78125 -0.0625 L 2.515625 -0.0625 C 2.242188 -0.0625 2.03125 -0.140625 1.875 -0.296875 C 1.71875 -0.453125 1.640625 -0.664062 1.640625 -0.9375 L 1.640625 -29.578125 C 1.640625 -29.847656 1.71875 -30.0625 1.875 -30.21875 C 2.03125 -30.375 2.242188 -30.453125 2.515625 -30.453125 L 11.78125 -30.453125 C 12.050781 -30.453125 12.265625 -30.375 12.421875 -30.21875 C 12.578125 -30.0625 12.65625 -29.847656 12.65625 -29.578125 L 12.65625 -28.296875 C 12.65625 -28.140625 12.691406 -28.039062 12.765625 -28 C 12.847656 -27.957031 12.925781 -28 13 -28.125 C 14.25 -29.957031 15.945312 -30.875 18.09375 -30.875 Z M 18.09375 -30.875 "/></g></g></g><g fill="#fafafa" fill-opacity="0.4"><g transform="translate(145.576294, 81.122615)"><g><path d="M 18.921875 -30.921875 C 21.847656 -30.921875 24.128906 -29.972656 25.765625 -28.078125 C 27.410156 -26.191406 28.234375 -23.566406 28.234375 -20.203125 L 28.234375 -0.875 C 28.234375 -0.601562 28.15625 -0.390625 28 -0.234375 C 27.84375 -0.078125 27.628906 0 27.359375 0 L 18.09375 0 C 17.820312 0 17.609375 -0.078125 17.453125 -0.234375 C 17.296875 -0.390625 17.21875 -0.601562 17.21875 -0.875 L 17.21875 -18.625 C 17.21875 -19.488281 17.007812 -20.179688 16.59375 -20.703125 C 16.1875 -21.234375 15.65625 -21.5 15 -21.5 C 14.257812 -21.5 13.679688 -21.242188 13.265625 -20.734375 C 12.859375 -20.222656 12.65625 -19.519531 12.65625 -18.625 L 12.65625 -0.875 C 12.65625 -0.601562 12.578125 -0.390625 12.421875 -0.234375 C 12.265625 -0.078125 12.050781 0 11.78125 0 L 2.515625 0 C 2.242188 0 2.03125 -0.078125 1.875 -0.234375 C 1.71875 -0.390625 1.640625 -0.601562 1.640625 -0.875 L 1.640625 -29.578125 C 1.640625 -29.847656 1.71875 -30.0625 1.875 -30.21875 C 2.03125 -30.375 2.242188 -30.453125 2.515625 -30.453125 L 11.78125 -30.453125 C 12.050781 -30.453125 12.265625 -30.375 12.421875 -30.21875 C 12.578125 -30.0625 12.65625 -29.847656 12.65625 -29.578125 L 12.65625 -28.125 C 12.65625 -27.96875 12.703125 -27.890625 12.796875 -27.890625 C 12.898438 -27.890625 13.03125 -27.96875 13.1875 -28.125 C 14.46875 -29.988281 16.378906 -30.921875 18.921875 -30.921875 Z M 18.921875 -30.921875 "/></g></g></g><g fill="#fafafa" fill-opacity="1"><g transform="translate(4.669523, 78.53353)"><g><path d="M 7.03125 -32.515625 C 5.425781 -32.515625 4.101562 -33.03125 3.0625 -34.0625 C 2.03125 -35.09375 1.515625 -36.410156 1.515625 -38.015625 C 1.515625 -39.660156 2.03125 -40.988281 3.0625 -42 C 4.101562 -43.019531 5.425781 -43.53125 7.03125 -43.53125 C 8.632812 -43.53125 9.953125 -43.019531 10.984375 -42 C 12.015625 -40.988281 12.53125 -39.660156 12.53125 -38.015625 C 12.53125 -36.453125 12.015625 -35.144531 10.984375 -34.09375 C 9.953125 -33.039062 8.632812 -32.515625 7.03125 -32.515625 Z M 2.453125 0 C 2.179688 0 1.96875 -0.078125 1.8125 -0.234375 C 1.65625 -0.390625 1.578125 -0.601562 1.578125 -0.875 L 1.578125 -29.578125 C 1.578125 -29.847656 1.65625 -30.0625 1.8125 -30.21875 C 1.96875 -30.375 2.179688 -30.453125 2.453125 -30.453125 L 11.71875 -30.453125 C 11.988281 -30.453125 12.203125 -30.375 12.359375 -30.21875 C 12.515625 -30.0625 12.59375 -29.847656 12.59375 -29.578125 L 12.59375 -0.875 C 12.59375 -0.601562 12.515625 -0.390625 12.359375 -0.234375 C 12.203125 -0.078125 11.988281 0 11.71875 0 Z M 2.453125 0 "/></g></g></g><g fill="#fafafa" fill-opacity="1"><g transform="translate(21.42465, 78.53353)"><g><path d="M 2.8125 0 C 2.539062 0 2.328125 -0.078125 2.171875 -0.234375 C 2.015625 -0.390625 1.9375 -0.601562 1.9375 -0.875 L 1.9375 -40.125 C 1.9375 -40.394531 2.015625 -40.609375 2.171875 -40.765625 C 2.328125 -40.921875 2.539062 -41 2.8125 -41 L 12.0625 -41 C 12.34375 -41 12.5625 -40.921875 12.71875 -40.765625 C 12.875 -40.609375 12.953125 -40.394531 12.953125 -40.125 L 12.953125 -9.78125 C 12.953125 -9.550781 13.066406 -9.4375 13.296875 -9.4375 L 28 -9.4375 C 28.269531 -9.4375 28.484375 -9.359375 28.640625 -9.203125 C 28.796875 -9.046875 28.875 -8.828125 28.875 -8.546875 L 28.875 -0.875 C 28.875 -0.601562 28.796875 -0.390625 28.640625 -0.234375 C 28.484375 -0.078125 28.269531 0 28 0 Z M 2.8125 0 "/></g></g></g><g fill="#fafafa" fill-opacity="1"><g transform="translate(53.997552, 78.53353)"><g><path d="M 28.53125 -18.984375 C 28.601562 -17.421875 28.640625 -16.226562 28.640625 -15.40625 L 28.59375 -13.359375 C 28.59375 -12.773438 28.296875 -12.484375 27.703125 -12.484375 L 12.765625 -12.484375 C 12.578125 -12.484375 12.484375 -12.40625 12.484375 -12.25 C 12.484375 -11.8125 12.5625 -11.359375 12.71875 -10.890625 C 13.144531 -9.566406 14.019531 -8.90625 15.34375 -8.90625 C 16.59375 -8.90625 17.453125 -9.375 17.921875 -10.3125 C 18.234375 -10.820312 18.601562 -11.015625 19.03125 -10.890625 L 27.421875 -9.3125 C 27.691406 -9.269531 27.882812 -9.148438 28 -8.953125 C 28.113281 -8.765625 28.132812 -8.535156 28.0625 -8.265625 C 27.082031 -5.410156 25.535156 -3.238281 23.421875 -1.75 C 21.316406 -0.269531 18.703125 0.46875 15.578125 0.46875 C 11.640625 0.46875 8.554688 -0.359375 6.328125 -2.015625 C 4.097656 -3.679688 2.613281 -6.132812 1.875 -9.375 C 1.476562 -11.050781 1.28125 -13.003906 1.28125 -15.234375 C 1.207031 -16.910156 1.328125 -18.644531 1.640625 -20.4375 C 2.148438 -23.644531 3.582031 -26.191406 5.9375 -28.078125 C 8.300781 -29.972656 11.257812 -30.921875 14.8125 -30.921875 C 17.394531 -30.921875 19.691406 -30.414062 21.703125 -29.40625 C 23.710938 -28.394531 25.3125 -26.976562 26.5 -25.15625 C 27.695312 -23.34375 28.375 -21.285156 28.53125 -18.984375 Z M 14.9375 -21.5 C 13.6875 -21.5 12.90625 -20.796875 12.59375 -19.390625 L 12.484375 -18.390625 C 12.484375 -18.160156 12.578125 -18.046875 12.765625 -18.046875 L 17.109375 -18.046875 C 17.296875 -18.046875 17.390625 -18.160156 17.390625 -18.390625 L 17.28125 -19.390625 C 17.164062 -20.054688 16.898438 -20.570312 16.484375 -20.9375 C 16.078125 -21.3125 15.5625 -21.5 14.9375 -21.5 Z M 14.9375 -21.5 "/></g></g></g><g fill="#fafafa" fill-opacity="1"><g transform="translate(86.336128, 78.53353)"><g><path d="M 14.40625 -30.921875 C 16.988281 -30.921875 19.3125 -30.492188 21.375 -29.640625 C 23.445312 -28.785156 25.066406 -27.59375 26.234375 -26.0625 C 27.410156 -24.539062 28 -22.84375 28 -20.96875 L 28 -0.875 C 28 -0.601562 27.921875 -0.390625 27.765625 -0.234375 C 27.609375 -0.078125 27.394531 0 27.125 0 L 17.859375 0 C 17.585938 0 17.375 -0.078125 17.21875 -0.234375 C 17.0625 -0.390625 16.984375 -0.601562 16.984375 -0.875 L 16.984375 -2.453125 C 16.984375 -2.609375 16.929688 -2.695312 16.828125 -2.71875 C 16.734375 -2.738281 16.648438 -2.671875 16.578125 -2.515625 C 15.285156 -0.523438 13.019531 0.46875 9.78125 0.46875 C 7.125 0.46875 4.945312 -0.210938 3.25 -1.578125 C 1.550781 -2.941406 0.703125 -5.25 0.703125 -8.5 C 0.703125 -11.9375 1.71875 -14.335938 3.75 -15.703125 C 5.78125 -17.066406 8.847656 -17.75 12.953125 -17.75 L 16.640625 -17.75 C 16.867188 -17.75 16.984375 -17.863281 16.984375 -18.09375 L 16.984375 -19.265625 C 16.984375 -19.929688 16.757812 -20.46875 16.3125 -20.875 C 15.863281 -21.289062 15.25 -21.5 14.46875 -21.5 C 13.957031 -21.5 13.503906 -21.390625 13.109375 -21.171875 C 12.722656 -20.960938 12.4375 -20.679688 12.25 -20.328125 C 12.125 -20.054688 11.984375 -19.859375 11.828125 -19.734375 C 11.671875 -19.617188 11.476562 -19.582031 11.25 -19.625 L 1.9375 -20.265625 C 1.34375 -20.347656 1.046875 -20.601562 1.046875 -21.03125 C 1.171875 -22.976562 1.816406 -24.703125 2.984375 -26.203125 C 4.160156 -27.710938 5.742188 -28.875 7.734375 -29.6875 C 9.722656 -30.507812 11.945312 -30.921875 14.40625 -30.921875 Z M 13.9375 -7.328125 C 14.800781 -7.328125 15.523438 -7.5625 16.109375 -8.03125 C 16.691406 -8.5 16.984375 -9.140625 16.984375 -9.953125 L 16.984375 -11.078125 C 16.984375 -11.304688 16.867188 -11.421875 16.640625 -11.421875 L 14.640625 -11.421875 C 13.785156 -11.421875 13.113281 -11.234375 12.625 -10.859375 C 12.132812 -10.492188 11.890625 -9.976562 11.890625 -9.3125 C 11.890625 -8.6875 12.070312 -8.195312 12.4375 -7.84375 C 12.8125 -7.5 13.3125 -7.328125 13.9375 -7.328125 Z M 13.9375 -7.328125 "/></g></g></g><g fill="#fafafa" fill-opacity="1"><g transform="translate(118.557525, 78.53353)"><g><path d="M 18.09375 -30.875 C 19.1875 -30.875 20.125 -30.65625 20.90625 -30.21875 C 21.257812 -30.03125 21.398438 -29.660156 21.328125 -29.109375 L 19.921875 -19.96875 C 19.878906 -19.65625 19.769531 -19.457031 19.59375 -19.375 C 19.414062 -19.300781 19.171875 -19.304688 18.859375 -19.390625 C 18.390625 -19.503906 17.84375 -19.5625 17.21875 -19.5625 C 16.519531 -19.5625 15.914062 -19.484375 15.40625 -19.328125 C 14.625 -19.054688 13.96875 -18.617188 13.4375 -18.015625 C 12.914062 -17.410156 12.65625 -16.675781 12.65625 -15.8125 L 12.65625 -0.9375 C 12.65625 -0.664062 12.578125 -0.453125 12.421875 -0.296875 C 12.265625 -0.140625 12.050781 -0.0625 11.78125 -0.0625 L 2.515625 -0.0625 C 2.242188 -0.0625 2.03125 -0.140625 1.875 -0.296875 C 1.71875 -0.453125 1.640625 -0.664062 1.640625 -0.9375 L 1.640625 -29.578125 C 1.640625 -29.847656 1.71875 -30.0625 1.875 -30.21875 C 2.03125 -30.375 2.242188 -30.453125 2.515625 -30.453125 L 11.78125 -30.453125 C 12.050781 -30.453125 12.265625 -30.375 12.421875 -30.21875 C 12.578125 -30.0625 12.65625 -29.847656 12.65625 -29.578125 L 12.65625 -28.296875 C 12.65625 -28.140625 12.691406 -28.039062 12.765625 -28 C 12.847656 -27.957031 12.925781 -28 13 -28.125 C 14.25 -29.957031 15.945312 -30.875 18.09375 -30.875 Z M 18.09375 -30.875 "/></g></g></g><g fill="#fafafa" fill-opacity="1"><g transform="translate(142.987209, 78.53353)"><g><path d="M 18.921875 -30.921875 C 21.847656 -30.921875 24.128906 -29.972656 25.765625 -28.078125 C 27.410156 -26.191406 28.234375 -23.566406 28.234375 -20.203125 L 28.234375 -0.875 C 28.234375 -0.601562 28.15625 -0.390625 28 -0.234375 C 27.84375 -0.078125 27.628906 0 27.359375 0 L 18.09375 0 C 17.820312 0 17.609375 -0.078125 17.453125 -0.234375 C 17.296875 -0.390625 17.21875 -0.601562 17.21875 -0.875 L 17.21875 -18.625 C 17.21875 -19.488281 17.007812 -20.179688 16.59375 -20.703125 C 16.1875 -21.234375 15.65625 -21.5 15 -21.5 C 14.257812 -21.5 13.679688 -21.242188 13.265625 -20.734375 C 12.859375 -20.222656 12.65625 -19.519531 12.65625 -18.625 L 12.65625 -0.875 C 12.65625 -0.601562 12.578125 -0.390625 12.421875 -0.234375 C 12.265625 -0.078125 12.050781 0 11.78125 0 L 2.515625 0 C 2.242188 0 2.03125 -0.078125 1.875 -0.234375 C 1.71875 -0.390625 1.640625 -0.601562 1.640625 -0.875 L 1.640625 -29.578125 C 1.640625 -29.847656 1.71875 -30.0625 1.875 -30.21875 C 2.03125 -30.375 2.242188 -30.453125 2.515625 -30.453125 L 11.78125 -30.453125 C 12.050781 -30.453125 12.265625 -30.375 12.421875 -30.21875 C 12.578125 -30.0625 12.65625 -29.847656 12.65625 -29.578125 L 12.65625 -28.125 C 12.65625 -27.96875 12.703125 -27.890625 12.796875 -27.890625 C 12.898438 -27.890625 13.03125 -27.96875 13.1875 -28.125 C 14.46875 -29.988281 16.378906 -30.921875 18.921875 -30.921875 Z M 18.921875 -30.921875 "/></g></g></g></svg>