<svg xmlns="http://www.w3.org/2000/svg" xmlns:xlink="http://www.w3.org/1999/xlink" width="300" zoomAndPan="magnify" viewBox="0 0 224.87999 112.499997" height="150" preserveAspectRatio="xMidYMid meet" version="1.0"><defs><g/></defs><g fill="#fafafa" fill-opacity="0.4"><g transform="translate(20.023787, 81.122615)"><g><path d="M 7.03125 -32.515625 C 5.425781 -32.515625 4.101562 -33.03125 3.0625 -34.0625 C 2.03125 -35.09375 1.515625 -36.410156 1.515625 -38.015625 C 1.515625 -39.660156 2.03125 -40.988281 3.0625 -42 C 4.101562 -43.019531 5.425781 -43.53125 7.03125 -43.53125 C 8.632812 -43.53125 9.953125 -43.019531 10.984375 -42 C 12.015625 -40.988281 12.53125 -39.660156 12.53125 -38.015625 C 12.53125 -36.453125 12.015625 -35.144531 10.984375 -34.09375 C 9.953125 -33.039062 8.632812 -32.515625 7.03125 -32.515625 Z M 2.453125 0 C 2.179688 0 1.96875 -0.078125 1.8125 -0.234375 C 1.65625 -0.390625 1.578125 -0.601562 1.578125 -0.875 L 1.578125 -29.578125 C 1.578125 -29.847656 1.65625 -30.0625 1.8125 -30.21875 C 1.96875 -30.375 2.179688 -30.453125 2.453125 -30.453125 L 11.71875 -30.453125 C 11.988281 -30.453125 12.203125 -30.375 12.359375 -30.21875 C 12.515625 -30.0625 12.59375 -29.847656 12.59375 -29.578125 L 12.59375 -0.875 C 12.59375 -0.601562 12.515625 -0.390625 12.359375 -0.234375 C 12.203125 -0.078125 11.988281 0 11.71875 0 Z M 2.453125 0 "/></g></g></g><g fill="#fafafa" fill-opacity="0.4"><g transform="translate(36.778914, 81.122615)"><g><path d="M 2.8125 0 C 2.539062 0 2.328125 -0.078125 2.171875 -0.234375 C 2.015625 -0.390625 1.9375 -0.601562 1.9375 -0.875 L 1.9375 -40.125 C 1.9375 -40.394531 2.015625 -40.609375 2.171875 -40.765625 C 2.328125 -40.921875 2.539062 -41 2.8125 -41 L 12.0625 -41 C 12.34375 -41 12.5625 -40.921875 12.71875 -40.765625 C 12.875 -40.609375 12.953125 -40.394531 12.953125 -40.125 L 12.953125 -9.78125 C 12.953125 -9.550781 13.066406 -9.4375 13.296875 -9.4375 L 28 -9.4375 C 28.269531 -9.4375 28.484375 -9.359375 28.640625 -9.203125 C 28.796875 -9.046875 28.875 -8.828125 28.875 -8.546875 L 28.875 -0.875 C 28.875 -0.601562 28.796875 -0.390625 28.640625 -0.234375 C 28.484375 -0.078125 28.269531 0 28 0 Z M 2.8125 0 "/></g></g></g><g fill="#fafafa" fill-opacity="0.4"><g transform="translate(69.351816, 81.122615)"><g><path d="M 28.53125 -18.984375 C 28.601562 -17.421875 28.640625 -16.226562 28.640625 -15.40625 L 28.59375 -13.359375 C 28.59375 -12.773438 28.296875 -12.484375 27.703125 -12.484375 L 12.765625 -12.484375 C 12.578125 -12.484375 12.484375 -12.40625 12.484375 -12.25 C 12.484375 -11.8125 12.5625 -11.359375 12.71875 -10.890625 C 13.144531 -9.566406 14.019531 -8.90625 15.34375 -8.90625 C 16.59375 -8.90625 17.453125 -9.375 17.921875 -10.3125 C 18.234375 -10.820312 18.601562 -11.015625 19.03125 -10.890625 L 27.421875 -9.3125 C 27.691406 -9.269531 27.882812 -9.148438 28 -8.953125 C 28.113281 -8.765625 28.132812 -8.535156 28.0625 -8.265625 C 27.082031 -5.410156 25.535156 -3.238281 23.421875 -1.75 C 21.316406 -0.269531 18.703125 0.46875 15.578125 0.46875 C 11.640625 0.46875 8.554688 -0.359375 6.328125 -2.015625 C 4.097656 -3.679688 2.613281 -6.132812 1.875 -9.375 C 1.476562 -11.050781 1.28125 -13.003906 1.28125 -15.234375 C 1.207031 -16.910156 1.328125 -18.644531 1.640625 -20.4375 C 2.148438 -23.644531 3.582031 -26.191406 5.9375 -28.078125 C 8.300781 -29.972656 11.257812 -30.921875 14.8125 -30.921875 C 17.394531 -30.921875 19.691406 -30.414062 21.703125 -29.40625 C 23.710938 -28.394531 25.3125 -26.976562 26.5 -25.15625 C 27.695312 -23.34375 28.375 -21.285156 28.53125 -18.984375 Z M 14.9375 -21.5 C 13.6875 -21.5 12.90625 -20.796875 12.59375 -19.390625 L 12.484375 -18.390625 C 12.484375 -18.160156 12.578125 -18.046875 12.765625 -18.046875 L 17.109375 -18.046875 C 17.296875 -18.046875 17.390625 -18.160156 17.390625 -18.390625 L 17.28125 -19.390625 C 17.164062 -20.054688 16.898438 -20.570312 16.484375 -20.9375 C 16.078125 -21.3125 15.5625 -21.5 14.9375 -21.5 Z M 14.9375 -21.5 "/></g></g></g><g fill="#fafafa" fill-opacity="0.4"><g transform="translate(101.690392, 81.122615)"><g><path d="M 14.40625 -30.921875 C 16.988281 -30.921875 19.3125 -30.492188 21.375 -29.640625 C 23.445312 -28.785156 25.066406 -27.59375 26.234375 -26.0625 C 27.410156 -24.539062 28 -22.84375 28 -20.96875 L 28 -0.875 C 28 -0.601562 27.921875 -0.390625 27.765625 -0.234375 C 27.609375 -0.078125 27.394531 0 27.125 0 L 17.859375 0 C 17.585938 0 17.375 -0.078125 17.21875 -0.234375 C 17.0625 -0.390625 16.984375 -0.601562 16.984375 -0.875 L 16.984375 -2.453125 C 16.984375 -2.609375 16.929688 -2.695312 16.828125 -2.71875 C 16.734375 -2.738281 16.648438 -2.671875 16.578125 -2.515625 C 15.285156 -0.523438 13.019531 0.46875 9.78125 0.46875 C 7.125 0.46875 4.945312 -0.210938 3.25 -1.578125 C 1.550781 -2.941406 0.703125 -5.25 0.703125 -8.5 C 0.703125 -11.9375 1.71875 -14.335938 3.75 -15.703125 C 5.78125 -17.066406 8.847656 -17.75 12.953125 -17.75 L 16.640625 -17.75 C 16.867188 -17.75 16.984375 -17.863281 16.984375 -18.09375 L 16.984375 -19.265625 C 16.984375 -19.929688 16.757812 -20.46875 16.3125 -20.875 C 15.863281 -21.289062 15.25 -21.5 14.46875 -21.5 C 13.957031 -21.5 13.503906 -21.390625 13.109375 -21.171875 C 12.722656 -20.960938 12.4375 -20.679688 12.25 -20.328125 C 12.125 -20.054688 11.984375 -19.859375 11.828125 -19.734375 C 11.671875 -19.617188 11.476562 -19.582031 11.25 -19.625 L 1.9375 -20.265625 C 1.34375 -20.347656 1.046875 -20.601562 1.046875 -21.03125 C 1.171875 -22.976562 1.816406 -24.703125 2.984375 -26.203125 C 4.160156 -27.710938 5.742188 -28.875 7.734375 -29.6875 C 9.722656 -30.507812 11.945312 -30.921875 14.40625 -30.921875 Z M 13.9375 -7.328125 C 14.800781 -7.328125 15.523438 -7.5625 16.109375 -8.03125 C 16.691406 -8.5 16.984375 -9.140625 16.984375 -9.953125 L 16.984375 -11.078125 C 16.984375 -11.304688 16.867188 -11.421875 16.640625 -11.421875 L 14.640625 -11.421875 C 13.785156 -11.421875 13.113281 -11.234375 12.625 -10.859375 C 12.132812 -10.492188 11.890625 -9.976562 11.890625 -9.3125 C 11.890625 -8.6875 12.070312 -8.195312 12.4375 -7.84375 C 12.8125 -7.5 13.3125 -7.328125 13.9375 -7.328125 Z M 13.9375 -7.328125 "/></g></g></g><g fill="#fafafa" fill-opacity="0.4"><g transform="translate(133.911789, 81.122615)"><g><path d="M 18.09375 -30.875 C 19.1875 -30.875 20.125 -30.65625 20.90625 -30.21875 C 21.257812 -30.03125 21.398438 -29.660156 21.328125 -29.109375 L 19.921875 -19.96875 C 19.878906 -19.65625 19.769531 -19.457031 19.59375 -19.375 C 19.414062 -19.300781 19.171875 -19.304688 18.859375 -19.390625 C 18.390625 -19.503906 17.84375 -19.5625 17.21875 -19.5625 C 16.519531 -19.5625 15.914062 -19.484375 15.40625 -19.328125 C 14.625 -19.054688 13.96875 -18.617188 13.4375 -18.015625 C 12.914062 -17.410156 12.65625 -16.675781 12.65625 -15.8125 L 12.65625 -0.9375 C 12.65625 -0.664062 12.578125 -0.453125 12.421875 -0.296875 C 12.265625 -0.140625 12.050781 -0.0625 11.78125 -0.0625 L 2.515625 -0.0625 C 2.242188 -0.0625 2.03125 -0.140625 1.875 -0.296875 C 1.71875 -0.453125 1.640625 -0.664062 1.640625 -0.9375 L 1.640625 -29.578125 C 1.640625 -29.847656 1.71875 -30.0625 1.875 -30.21875 C 2.03125 -30.375 2.242188 -30.453125 2.515625 -30.453125 L 11.78125 -30.453125 C 12.050781 -30.453125 12.265625 -30.375 12.421875 -30.21875 C 12.578125 -30.0625 12.65625 -29.847656 12.65625 -29.578125 L 12.65625 -28.296875 C 12.65625 -28.140625 12.691406 -28.039062 12.765625 -28 C 12.847656 -27.957031 12.925781 -28 13 -28.125 C 14.25 -29.957031 15.945312 -30.875 18.09375 -30.875 Z M 18.09375 -30.875 "/></g></g></g><g fill="#fafafa" fill-opacity="0.4"><g transform="translate(158.341473, 81.122615)"><g><path d="M 18.921875 -30.921875 C 21.847656 -30.921875 24.128906 -29.972656 25.765625 -28.078125 C 27.410156 -26.191406 28.234375 -23.566406 28.234375 -20.203125 L 28.234375 -0.875 C 28.234375 -0.601562 28.15625 -0.390625 28 -0.234375 C 27.84375 -0.078125 27.628906 0 27.359375 0 L 18.09375 0 C 17.820312 0 17.609375 -0.078125 17.453125 -0.234375 C 17.296875 -0.390625 17.21875 -0.601562 17.21875 -0.875 L 17.21875 -18.625 C 17.21875 -19.488281 17.007812 -20.179688 16.59375 -20.703125 C 16.1875 -21.234375 15.65625 -21.5 15 -21.5 C 14.257812 -21.5 13.679688 -21.242188 13.265625 -20.734375 C 12.859375 -20.222656 12.65625 -19.519531 12.65625 -18.625 L 12.65625 -0.875 C 12.65625 -0.601562 12.578125 -0.390625 12.421875 -0.234375 C 12.265625 -0.078125 12.050781 0 11.78125 0 L 2.515625 0 C 2.242188 0 2.03125 -0.078125 1.875 -0.234375 C 1.71875 -0.390625 1.640625 -0.601562 1.640625 -0.875 L 1.640625 -29.578125 C 1.640625 -29.847656 1.71875 -30.0625 1.875 -30.21875 C 2.03125 -30.375 2.242188 -30.453125 2.515625 -30.453125 L 11.78125 -30.453125 C 12.050781 -30.453125 12.265625 -30.375 12.421875 -30.21875 C 12.578125 -30.0625 12.65625 -29.847656 12.65625 -29.578125 L 12.65625 -28.125 C 12.65625 -27.96875 12.703125 -27.890625 12.796875 -27.890625 C 12.898438 -27.890625 13.03125 -27.96875 13.1875 -28.125 C 14.46875 -29.988281 16.378906 -30.921875 18.921875 -30.921875 Z M 18.921875 -30.921875 "/></g></g></g><g fill="#fafafa" fill-opacity="0.4"><g transform="translate(190.738639, 81.122615)"><g><path d="M 6.15625 -14.53125 C 5.875 -14.53125 5.644531 -14.609375 5.46875 -14.765625 C 5.300781 -14.921875 5.21875 -15.132812 5.21875 -15.40625 L 4.15625 -40.125 C 4.15625 -40.707031 4.429688 -41 4.984375 -41 L 14.234375 -41 C 14.773438 -41 15.046875 -40.707031 15.046875 -40.125 L 14 -15.40625 C 14 -15.132812 13.910156 -14.921875 13.734375 -14.765625 C 13.554688 -14.609375 13.332031 -14.53125 13.0625 -14.53125 Z M 9.4375 0 C 7.832031 0 6.507812 -0.515625 5.46875 -1.546875 C 4.4375 -2.585938 3.921875 -3.90625 3.921875 -5.5 C 3.921875 -7.144531 4.4375 -8.472656 5.46875 -9.484375 C 6.507812 -10.503906 7.832031 -11.015625 9.4375 -11.015625 C 11.03125 -11.015625 12.34375 -10.503906 13.375 -9.484375 C 14.414062 -8.472656 14.9375 -7.144531 14.9375 -5.5 C 14.9375 -3.9375 14.414062 -2.628906 13.375 -1.578125 C 12.34375 -0.523438 11.03125 0 9.4375 0 Z M 9.4375 0 "/></g></g></g><g fill="#fafafa" fill-opacity="1"><g transform="translate(17.434701, 78.53353)"><g><path d="M 7.03125 -32.515625 C 5.425781 -32.515625 4.101562 -33.03125 3.0625 -34.0625 C 2.03125 -35.09375 1.515625 -36.410156 1.515625 -38.015625 C 1.515625 -39.660156 2.03125 -40.988281 3.0625 -42 C 4.101562 -43.019531 5.425781 -43.53125 7.03125 -43.53125 C 8.632812 -43.53125 9.953125 -43.019531 10.984375 -42 C 12.015625 -40.988281 12.53125 -39.660156 12.53125 -38.015625 C 12.53125 -36.453125 12.015625 -35.144531 10.984375 -34.09375 C 9.953125 -33.039062 8.632812 -32.515625 7.03125 -32.515625 Z M 2.453125 0 C 2.179688 0 1.96875 -0.078125 1.8125 -0.234375 C 1.65625 -0.390625 1.578125 -0.601562 1.578125 -0.875 L 1.578125 -29.578125 C 1.578125 -29.847656 1.65625 -30.0625 1.8125 -30.21875 C 1.96875 -30.375 2.179688 -30.453125 2.453125 -30.453125 L 11.71875 -30.453125 C 11.988281 -30.453125 12.203125 -30.375 12.359375 -30.21875 C 12.515625 -30.0625 12.59375 -29.847656 12.59375 -29.578125 L 12.59375 -0.875 C 12.59375 -0.601562 12.515625 -0.390625 12.359375 -0.234375 C 12.203125 -0.078125 11.988281 0 11.71875 0 Z M 2.453125 0 "/></g></g></g><g fill="#fafafa" fill-opacity="1"><g transform="translate(34.189828, 78.53353)"><g><path d="M 2.8125 0 C 2.539062 0 2.328125 -0.078125 2.171875 -0.234375 C 2.015625 -0.390625 1.9375 -0.601562 1.9375 -0.875 L 1.9375 -40.125 C 1.9375 -40.394531 2.015625 -40.609375 2.171875 -40.765625 C 2.328125 -40.921875 2.539062 -41 2.8125 -41 L 12.0625 -41 C 12.34375 -41 12.5625 -40.921875 12.71875 -40.765625 C 12.875 -40.609375 12.953125 -40.394531 12.953125 -40.125 L 12.953125 -9.78125 C 12.953125 -9.550781 13.066406 -9.4375 13.296875 -9.4375 L 28 -9.4375 C 28.269531 -9.4375 28.484375 -9.359375 28.640625 -9.203125 C 28.796875 -9.046875 28.875 -8.828125 28.875 -8.546875 L 28.875 -0.875 C 28.875 -0.601562 28.796875 -0.390625 28.640625 -0.234375 C 28.484375 -0.078125 28.269531 0 28 0 Z M 2.8125 0 "/></g></g></g><g fill="#fafafa" fill-opacity="1"><g transform="translate(66.762731, 78.53353)"><g><path d="M 28.53125 -18.984375 C 28.601562 -17.421875 28.640625 -16.226562 28.640625 -15.40625 L 28.59375 -13.359375 C 28.59375 -12.773438 28.296875 -12.484375 27.703125 -12.484375 L 12.765625 -12.484375 C 12.578125 -12.484375 12.484375 -12.40625 12.484375 -12.25 C 12.484375 -11.8125 12.5625 -11.359375 12.71875 -10.890625 C 13.144531 -9.566406 14.019531 -8.90625 15.34375 -8.90625 C 16.59375 -8.90625 17.453125 -9.375 17.921875 -10.3125 C 18.234375 -10.820312 18.601562 -11.015625 19.03125 -10.890625 L 27.421875 -9.3125 C 27.691406 -9.269531 27.882812 -9.148438 28 -8.953125 C 28.113281 -8.765625 28.132812 -8.535156 28.0625 -8.265625 C 27.082031 -5.410156 25.535156 -3.238281 23.421875 -1.75 C 21.316406 -0.269531 18.703125 0.46875 15.578125 0.46875 C 11.640625 0.46875 8.554688 -0.359375 6.328125 -2.015625 C 4.097656 -3.679688 2.613281 -6.132812 1.875 -9.375 C 1.476562 -11.050781 1.28125 -13.003906 1.28125 -15.234375 C 1.207031 -16.910156 1.328125 -18.644531 1.640625 -20.4375 C 2.148438 -23.644531 3.582031 -26.191406 5.9375 -28.078125 C 8.300781 -29.972656 11.257812 -30.921875 14.8125 -30.921875 C 17.394531 -30.921875 19.691406 -30.414062 21.703125 -29.40625 C 23.710938 -28.394531 25.3125 -26.976562 26.5 -25.15625 C 27.695312 -23.34375 28.375 -21.285156 28.53125 -18.984375 Z M 14.9375 -21.5 C 13.6875 -21.5 12.90625 -20.796875 12.59375 -19.390625 L 12.484375 -18.390625 C 12.484375 -18.160156 12.578125 -18.046875 12.765625 -18.046875 L 17.109375 -18.046875 C 17.296875 -18.046875 17.390625 -18.160156 17.390625 -18.390625 L 17.28125 -19.390625 C 17.164062 -20.054688 16.898438 -20.570312 16.484375 -20.9375 C 16.078125 -21.3125 15.5625 -21.5 14.9375 -21.5 Z M 14.9375 -21.5 "/></g></g></g><g fill="#fafafa" fill-opacity="1"><g transform="translate(99.101306, 78.53353)"><g><path d="M 14.40625 -30.921875 C 16.988281 -30.921875 19.3125 -30.492188 21.375 -29.640625 C 23.445312 -28.785156 25.066406 -27.59375 26.234375 -26.0625 C 27.410156 -24.539062 28 -22.84375 28 -20.96875 L 28 -0.875 C 28 -0.601562 27.921875 -0.390625 27.765625 -0.234375 C 27.609375 -0.078125 27.394531 0 27.125 0 L 17.859375 0 C 17.585938 0 17.375 -0.078125 17.21875 -0.234375 C 17.0625 -0.390625 16.984375 -0.601562 16.984375 -0.875 L 16.984375 -2.453125 C 16.984375 -2.609375 16.929688 -2.695312 16.828125 -2.71875 C 16.734375 -2.738281 16.648438 -2.671875 16.578125 -2.515625 C 15.285156 -0.523438 13.019531 0.46875 9.78125 0.46875 C 7.125 0.46875 4.945312 -0.210938 3.25 -1.578125 C 1.550781 -2.941406 0.703125 -5.25 0.703125 -8.5 C 0.703125 -11.9375 1.71875 -14.335938 3.75 -15.703125 C 5.78125 -17.066406 8.847656 -17.75 12.953125 -17.75 L 16.640625 -17.75 C 16.867188 -17.75 16.984375 -17.863281 16.984375 -18.09375 L 16.984375 -19.265625 C 16.984375 -19.929688 16.757812 -20.46875 16.3125 -20.875 C 15.863281 -21.289062 15.25 -21.5 14.46875 -21.5 C 13.957031 -21.5 13.503906 -21.390625 13.109375 -21.171875 C 12.722656 -20.960938 12.4375 -20.679688 12.25 -20.328125 C 12.125 -20.054688 11.984375 -19.859375 11.828125 -19.734375 C 11.671875 -19.617188 11.476562 -19.582031 11.25 -19.625 L 1.9375 -20.265625 C 1.34375 -20.347656 1.046875 -20.601562 1.046875 -21.03125 C 1.171875 -22.976562 1.816406 -24.703125 2.984375 -26.203125 C 4.160156 -27.710938 5.742188 -28.875 7.734375 -29.6875 C 9.722656 -30.507812 11.945312 -30.921875 14.40625 -30.921875 Z M 13.9375 -7.328125 C 14.800781 -7.328125 15.523438 -7.5625 16.109375 -8.03125 C 16.691406 -8.5 16.984375 -9.140625 16.984375 -9.953125 L 16.984375 -11.078125 C 16.984375 -11.304688 16.867188 -11.421875 16.640625 -11.421875 L 14.640625 -11.421875 C 13.785156 -11.421875 13.113281 -11.234375 12.625 -10.859375 C 12.132812 -10.492188 11.890625 -9.976562 11.890625 -9.3125 C 11.890625 -8.6875 12.070312 -8.195312 12.4375 -7.84375 C 12.8125 -7.5 13.3125 -7.328125 13.9375 -7.328125 Z M 13.9375 -7.328125 "/></g></g></g><g fill="#fafafa" fill-opacity="1"><g transform="translate(131.322704, 78.53353)"><g><path d="M 18.09375 -30.875 C 19.1875 -30.875 20.125 -30.65625 20.90625 -30.21875 C 21.257812 -30.03125 21.398438 -29.660156 21.328125 -29.109375 L 19.921875 -19.96875 C 19.878906 -19.65625 19.769531 -19.457031 19.59375 -19.375 C 19.414062 -19.300781 19.171875 -19.304688 18.859375 -19.390625 C 18.390625 -19.503906 17.84375 -19.5625 17.21875 -19.5625 C 16.519531 -19.5625 15.914062 -19.484375 15.40625 -19.328125 C 14.625 -19.054688 13.96875 -18.617188 13.4375 -18.015625 C 12.914062 -17.410156 12.65625 -16.675781 12.65625 -15.8125 L 12.65625 -0.9375 C 12.65625 -0.664062 12.578125 -0.453125 12.421875 -0.296875 C 12.265625 -0.140625 12.050781 -0.0625 11.78125 -0.0625 L 2.515625 -0.0625 C 2.242188 -0.0625 2.03125 -0.140625 1.875 -0.296875 C 1.71875 -0.453125 1.640625 -0.664062 1.640625 -0.9375 L 1.640625 -29.578125 C 1.640625 -29.847656 1.71875 -30.0625 1.875 -30.21875 C 2.03125 -30.375 2.242188 -30.453125 2.515625 -30.453125 L 11.78125 -30.453125 C 12.050781 -30.453125 12.265625 -30.375 12.421875 -30.21875 C 12.578125 -30.0625 12.65625 -29.847656 12.65625 -29.578125 L 12.65625 -28.296875 C 12.65625 -28.140625 12.691406 -28.039062 12.765625 -28 C 12.847656 -27.957031 12.925781 -28 13 -28.125 C 14.25 -29.957031 15.945312 -30.875 18.09375 -30.875 Z M 18.09375 -30.875 "/></g></g></g><g fill="#fafafa" fill-opacity="1"><g transform="translate(155.752387, 78.53353)"><g><path d="M 18.921875 -30.921875 C 21.847656 -30.921875 24.128906 -29.972656 25.765625 -28.078125 C 27.410156 -26.191406 28.234375 -23.566406 28.234375 -20.203125 L 28.234375 -0.875 C 28.234375 -0.601562 28.15625 -0.390625 28 -0.234375 C 27.84375 -0.078125 27.628906 0 27.359375 0 L 18.09375 0 C 17.820312 0 17.609375 -0.078125 17.453125 -0.234375 C 17.296875 -0.390625 17.21875 -0.601562 17.21875 -0.875 L 17.21875 -18.625 C 17.21875 -19.488281 17.007812 -20.179688 16.59375 -20.703125 C 16.1875 -21.234375 15.65625 -21.5 15 -21.5 C 14.257812 -21.5 13.679688 -21.242188 13.265625 -20.734375 C 12.859375 -20.222656 12.65625 -19.519531 12.65625 -18.625 L 12.65625 -0.875 C 12.65625 -0.601562 12.578125 -0.390625 12.421875 -0.234375 C 12.265625 -0.078125 12.050781 0 11.78125 0 L 2.515625 0 C 2.242188 0 2.03125 -0.078125 1.875 -0.234375 C 1.71875 -0.390625 1.640625 -0.601562 1.640625 -0.875 L 1.640625 -29.578125 C 1.640625 -29.847656 1.71875 -30.0625 1.875 -30.21875 C 2.03125 -30.375 2.242188 -30.453125 2.515625 -30.453125 L 11.78125 -30.453125 C 12.050781 -30.453125 12.265625 -30.375 12.421875 -30.21875 C 12.578125 -30.0625 12.65625 -29.847656 12.65625 -29.578125 L 12.65625 -28.125 C 12.65625 -27.96875 12.703125 -27.890625 12.796875 -27.890625 C 12.898438 -27.890625 13.03125 -27.96875 13.1875 -28.125 C 14.46875 -29.988281 16.378906 -30.921875 18.921875 -30.921875 Z M 18.921875 -30.921875 "/></g></g></g><g fill="#fafafa" fill-opacity="1"><g transform="translate(188.149553, 78.53353)"><g><path d="M 6.15625 -14.53125 C 5.875 -14.53125 5.644531 -14.609375 5.46875 -14.765625 C 5.300781 -14.921875 5.21875 -15.132812 5.21875 -15.40625 L 4.15625 -40.125 C 4.15625 -40.707031 4.429688 -41 4.984375 -41 L 14.234375 -41 C 14.773438 -41 15.046875 -40.707031 15.046875 -40.125 L 14 -15.40625 C 14 -15.132812 13.910156 -14.921875 13.734375 -14.765625 C 13.554688 -14.609375 13.332031 -14.53125 13.0625 -14.53125 Z M 9.4375 0 C 7.832031 0 6.507812 -0.515625 5.46875 -1.546875 C 4.4375 -2.585938 3.921875 -3.90625 3.921875 -5.5 C 3.921875 -7.144531 4.4375 -8.472656 5.46875 -9.484375 C 6.507812 -10.503906 7.832031 -11.015625 9.4375 -11.015625 C 11.03125 -11.015625 12.34375 -10.503906 13.375 -9.484375 C 14.414062 -8.472656 14.9375 -7.144531 14.9375 -5.5 C 14.9375 -3.9375 14.414062 -2.628906 13.375 -1.578125 C 12.34375 -0.523438 11.03125 0 9.4375 0 Z M 9.4375 0 "/></g></g></g></svg>