<svg xmlns="http://www.w3.org/2000/svg" xmlns:xlink="http://www.w3.org/1999/xlink" width="500" zoomAndPan="magnify" viewBox="0 0 375 374.999991" height="500" preserveAspectRatio="xMidYMid meet" version="1.0"><defs><g/><clipPath id="ea14595e08"><path d="M 20.132812 20.132812 L 354.867188 20.132812 L 354.867188 354.867188 L 20.132812 354.867188 Z M 20.132812 20.132812 " clip-rule="nonzero"/></clipPath><clipPath id="5fc5579c5b"><path d="M 187.5 20.132812 C 95.066406 20.132812 20.132812 95.066406 20.132812 187.5 C 20.132812 279.933594 95.066406 354.867188 187.5 354.867188 C 279.933594 354.867188 354.867188 279.933594 354.867188 187.5 C 354.867188 95.066406 279.933594 20.132812 187.5 20.132812 Z M 187.5 20.132812 " clip-rule="nonzero"/></clipPath><clipPath id="63771abdf8"><path d="M 30 193 L 306 193 L 306 348 L 30 348 Z M 30 193 " clip-rule="nonzero"/></clipPath><clipPath id="38aa4077d2"><path d="M 264.921875 368.542969 L 5.761719 278.054688 L 49.523438 152.726562 L 308.679688 243.210938 Z M 264.921875 368.542969 " clip-rule="nonzero"/></clipPath><clipPath id="44a4b05f67"><path d="M 264.921875 368.542969 L 5.761719 278.054688 L 49.523438 152.726562 L 308.679688 243.210938 Z M 264.921875 368.542969 " clip-rule="nonzero"/></clipPath><clipPath id="b3dc84be32"><path d="M 49 214 L 75 214 L 75 220 L 49 220 Z M 49 214 " clip-rule="nonzero"/></clipPath><clipPath id="b14a525bb7"><path d="M 264.921875 368.542969 L 5.761719 278.054688 L 49.523438 152.726562 L 308.679688 243.210938 Z M 264.921875 368.542969 " clip-rule="nonzero"/></clipPath><clipPath id="0bfa19a157"><path d="M 264.921875 368.542969 L 5.761719 278.054688 L 49.523438 152.726562 L 308.679688 243.210938 Z M 264.921875 368.542969 " clip-rule="nonzero"/></clipPath><clipPath id="e75549bcf3"><path d="M 230 331 L 235 331 L 235 340 L 230 340 Z M 230 331 " clip-rule="nonzero"/></clipPath><clipPath id="47008e78f6"><path d="M 264.921875 368.542969 L 5.761719 278.054688 L 49.523438 152.726562 L 308.679688 243.210938 Z M 264.921875 368.542969 " clip-rule="nonzero"/></clipPath><clipPath id="3cf416282a"><path d="M 264.921875 368.542969 L 5.761719 278.054688 L 49.523438 152.726562 L 308.679688 243.210938 Z M 264.921875 368.542969 " clip-rule="nonzero"/></clipPath></defs><path fill="#ffffff" d="M 187.5 0 C 83.90625 0 0 83.90625 0 187.5 C 0 291.09375 83.90625 375 187.5 375 C 291.09375 375 375 291.09375 375 187.5 C 375 83.90625 291.09375 0 187.5 0 Z M 187.5 337.5 C 104.625 337.5 37.5 270.375 37.5 187.5 C 37.5 104.625 104.625 37.5 187.5 37.5 C 270.375 37.5 337.5 104.625 337.5 187.5 C 337.5 270.375 270.375 337.5 187.5 337.5 Z M 187.5 337.5 " fill-opacity="1" fill-rule="nonzero"/><g clip-path="url(#ea14595e08)"><g clip-path="url(#5fc5579c5b)"><path fill="#02457a" d="M 20.132812 20.132812 L 354.867188 20.132812 L 354.867188 354.867188 L 20.132812 354.867188 Z M 20.132812 20.132812 " fill-opacity="1" fill-rule="nonzero"/></g></g><g clip-path="url(#63771abdf8)"><g clip-path="url(#38aa4077d2)"><g clip-path="url(#44a4b05f67)"><path fill="#2291e8" d="M 276.921875 244.089844 C 278.394531 239.96875 281.554688 238.878906 285.203125 238.820312 C 287.683594 238.78125 290.179688 239.113281 292.660156 239.21875 C 293.085938 239.238281 293.566406 239.011719 293.945312 238.773438 C 294.796875 238.246094 295.457031 238.375 295.96875 239.203125 C 297.125 241.09375 298.390625 242.933594 299.34375 244.921875 C 299.832031 245.945312 299.753906 247.25 299.890625 248.191406 C 300.984375 247.710938 302.390625 247.039062 303.851562 246.496094 C 305.289062 245.953125 305.5625 246.3125 305.425781 247.8125 C 304.996094 252.488281 302.195312 255.90625 299.445312 259.359375 C 299.101562 259.789062 298.738281 260.207031 298.394531 260.617188 C 298.832031 261.464844 299.511719 262.238281 299.585938 263.0625 C 299.644531 263.792969 299.03125 264.570312 298.589844 265.628906 C 299.011719 266.769531 298.804688 267.476562 297.511719 268.519531 C 297.136719 268.820312 296.761719 269.109375 296.429688 269.445312 C 295.226562 270.636719 294.609375 271.84375 295.058594 273.753906 C 295.847656 277.113281 294.636719 280.175781 292.617188 282.882812 C 292.449219 283.113281 291.785156 283.238281 291.535156 283.097656 C 288.660156 281.503906 285.496094 281.304688 282.332031 280.914062 C 276.90625 280.242188 271.402344 279.875 266.234375 277.820312 C 260.191406 275.414062 255.144531 271.671875 251.246094 266.449219 C 249.277344 263.8125 247.503906 261.027344 245.542969 258.386719 C 244.929688 257.5625 244.042969 256.890625 243.167969 256.3125 C 239.664062 253.988281 236.125 251.722656 232.59375 249.4375 C 232.394531 249.304688 232.207031 249.179688 231.976562 249.023438 C 231.539062 250.472656 231.007812 251.835938 230.757812 253.246094 C 230.671875 253.746094 231.121094 254.5625 231.570312 254.90625 C 233.140625 256.113281 234.839844 257.152344 236.453125 258.308594 C 238.222656 259.5625 238.765625 261.144531 238.304688 263.382812 C 237.894531 265.367188 238.070312 267.488281 238.160156 269.539062 C 238.222656 270.9375 239.414062 271.691406 240.542969 272.125 C 242.957031 273.054688 243.941406 275.03125 244.238281 277.261719 C 244.773438 281.289062 244.210938 285.292969 242.988281 289.136719 C 242.433594 290.878906 241.285156 292.4375 240.367188 294.0625 C 239.90625 294.890625 239.785156 295.445312 240.550781 296.332031 C 241.273438 297.167969 241.542969 298.453125 241.851562 299.589844 C 242.324219 301.304688 242.515625 303.109375 243.085938 304.785156 C 243.421875 305.796875 244.339844 306.601562 244.847656 307.574219 C 245.738281 309.296875 246.632812 311.035156 247.320312 312.839844 C 248.140625 315.007812 249.152344 316.929688 251.1875 318.238281 C 252.660156 319.183594 252.621094 319.417969 251.699219 320.917969 C 249.769531 324.070312 247.855469 327.226562 245.914062 330.375 C 245.1875 331.554688 244.875 332.761719 245.414062 334.105469 C 245.609375 334.582031 245.660156 335.125 245.910156 335.570312 C 247.359375 338.144531 245.667969 339.867188 244.109375 341.382812 C 242.238281 343.195312 240.0625 344.695312 238.03125 346.339844 C 237.421875 346.832031 236.878906 347.417969 236.21875 347.824219 C 235.953125 347.988281 235.222656 347.914062 235.117188 347.722656 C 234.054688 345.742188 233.171875 343.675781 232.054688 341.730469 C 230.402344 338.839844 228.613281 336.023438 226.863281 333.1875 C 226.660156 332.863281 226.371094 332.53125 226.042969 332.335938 C 224.640625 331.503906 223.371094 330.570312 222.257812 329.328125 C 221.203125 328.152344 219.667969 328.621094 218.304688 328.816406 C 216.421875 329.085938 214.550781 329.507812 212.660156 329.6875 C 210.671875 329.875 209.199219 328.929688 208.421875 327.078125 C 206.667969 322.917969 204.699219 318.828125 204.046875 314.15625 C 202.160156 315.226562 200.253906 315.292969 198.289062 315.007812 C 197.867188 314.949219 197.324219 315.117188 196.957031 315.359375 C 191.640625 318.894531 186.339844 322.449219 181.386719 326.523438 C 179.40625 328.15625 178.421875 329.679688 178.9375 332.226562 C 179.101562 333.015625 178.808594 333.964844 178.523438 334.765625 C 178.109375 335.933594 177.308594 336.242188 176.152344 335.761719 C 174.21875 334.945312 172.3125 334.042969 170.390625 333.203125 C 168.683594 332.460938 167.679688 331.011719 166.753906 329.535156 C 164.921875 326.601562 163.136719 323.644531 161.421875 320.640625 C 160.839844 319.617188 160.472656 318.453125 160.128906 317.316406 C 159.894531 316.542969 159.515625 316.28125 158.753906 316.460938 C 157.363281 316.789062 155.960938 317.050781 154.589844 317.433594 C 153.65625 317.695312 153.070312 317.414062 153.1875 316.480469 C 153.457031 314.335938 152.179688 313.746094 150.484375 313.035156 C 146.5 311.355469 142.632812 309.394531 138.71875 307.550781 C 138.433594 307.417969 138.148438 307.296875 137.8125 307.152344 C 137.667969 307.316406 137.503906 307.441406 137.425781 307.609375 C 135.5625 311.617188 131.019531 314.078125 125.644531 312.394531 C 124.734375 312.113281 123.855469 311.726562 122.941406 311.472656 C 120.914062 310.90625 119.714844 311.140625 118.671875 312.898438 C 117.226562 315.328125 116.175781 315.59375 113.5 314.746094 C 113.167969 314.640625 112.804688 314.542969 112.460938 314.542969 C 110.28125 314.53125 108.078125 312.757812 107.714844 310.546875 C 107.644531 310.113281 108.0625 309.472656 108.4375 309.132812 C 108.78125 308.820312 109.375 308.789062 110.003906 308.589844 C 108.976562 306.597656 107.796875 304.613281 108.695312 302.316406 C 107.398438 302.046875 106.328125 301.785156 105.242188 301.636719 C 105.011719 301.601562 104.644531 301.929688 104.476562 302.183594 C 103.214844 304.039062 101.5 303.960938 100.425781 301.976562 C 99.480469 300.230469 98.554688 298.472656 97.5625 296.75 C 96.875 295.546875 95.773438 295.046875 94.40625 294.6875 C 92.839844 294.265625 91.378906 293.378906 89.953125 292.558594 C 89.648438 292.386719 89.46875 291.550781 89.605469 291.140625 C 90.144531 289.488281 89.570312 288.007812 89.058594 286.511719 C 88.980469 286.289062 88.703125 286.066406 88.464844 285.976562 C 87.808594 285.71875 87.105469 285.320312 86.445312 285.351562 C 83.210938 285.507812 81.691406 283.484375 80.550781 280.914062 C 80.070312 279.824219 79.625 278.714844 79.105469 277.644531 C 78.359375 276.121094 77.253906 275.070312 75.40625 275.164062 C 75.207031 275.175781 74.960938 275.222656 74.820312 275.128906 C 74.230469 274.734375 73.671875 274.289062 73.101562 273.863281 C 73.539062 273.347656 73.921875 272.789062 74.414062 272.34375 C 74.722656 272.070312 75.214844 272.011719 75.59375 271.792969 C 76.398438 271.320312 76.777344 270.65625 76.425781 269.636719 C 75 269.792969 73.585938 269.941406 72.175781 270.101562 C 70.972656 270.242188 70.417969 269.730469 70.125 268.53125 C 69.164062 264.558594 69.589844 260.796875 71.621094 257.25 C 74.621094 252.011719 77.671875 246.796875 80.710938 241.578125 C 81.007812 241.078125 81.378906 240.613281 81.828125 239.976562 C 81.234375 239.710938 80.761719 239.425781 80.253906 239.289062 C 78.148438 238.707031 76.039062 238.152344 73.925781 237.617188 C 72.488281 237.25 72.109375 236.792969 72.046875 235.300781 C 71.960938 233.304688 72.09375 231.402344 73.839844 230.042969 C 73.960938 229.949219 74.027344 229.792969 74.105469 229.652344 C 74.140625 229.589844 74.132812 229.5 74.167969 229.261719 C 72.648438 229.066406 71.132812 228.828125 69.605469 228.679688 C 64.386719 228.160156 59.1875 227.589844 54.230469 225.667969 C 51.492188 224.613281 48.992188 223.304688 46.898438 221.167969 C 45.191406 219.421875 43.246094 217.886719 41.324219 216.363281 C 40.859375 215.992188 40.085938 215.957031 39.433594 215.878906 C 36.074219 215.472656 33.1875 214.148438 31.089844 211.4375 C 30.542969 210.730469 29.75 209.691406 30.554688 208.867188 C 31.089844 208.320312 32.191406 208.335938 33.3125 208.019531 C 33.589844 206.917969 34.378906 205.757812 35.742188 204.886719 C 37.375 203.855469 38.90625 204.128906 40.515625 204.757812 C 42.648438 205.59375 44.585938 206.75 46.140625 208.457031 C 46.742188 209.125 47.238281 209.070312 47.859375 208.546875 C 51.210938 205.703125 55.070312 204.945312 59.347656 205.632812 C 65.621094 206.640625 71.636719 208.417969 77.375 211.140625 C 78.863281 211.847656 79.757812 213.09375 80.441406 214.511719 C 81.019531 215.714844 80.695312 216.242188 79.410156 216.550781 C 78.441406 216.785156 77.496094 217.105469 76.546875 217.386719 C 76.578125 217.546875 76.613281 217.710938 76.644531 217.871094 C 78.859375 217.722656 81.074219 217.570312 83.398438 217.414062 C 83.0625 215.089844 82.234375 213.140625 80.8125 211.496094 C 79.203125 209.621094 78.335938 207.5625 78.675781 205.046875 C 78.800781 204.109375 78.675781 203.136719 78.789062 202.195312 C 79.058594 199.910156 80.390625 198.035156 82.359375 197.324219 C 84.742188 196.46875 87.347656 195.65625 89.992188 196.648438 C 91.316406 197.144531 92.148438 198.097656 92.578125 199.421875 C 93.597656 202.496094 95.800781 203.941406 98.941406 204.351562 C 99.859375 204.46875 100.6875 205.183594 101.582031 205.5625 C 102.003906 205.738281 102.5 205.882812 102.941406 205.828125 C 104.078125 205.6875 105.203125 205.414062 106.339844 205.21875 C 110.332031 204.53125 114.351562 203.960938 118.3125 203.128906 C 121.691406 202.417969 125.007812 201.429688 128.347656 200.539062 C 132.503906 199.429688 136.699219 198.664062 141.019531 198.515625 C 144.195312 198.410156 147.191406 197.671875 149.835938 195.683594 C 152.160156 193.933594 154.933594 193.15625 157.792969 193.28125 C 159.308594 193.347656 160.8125 194.132812 162.277344 194.703125 C 163.628906 195.230469 164.902344 195.546875 166.417969 195.242188 C 169.476562 194.628906 172.414062 195.40625 175.25 196.558594 C 175.988281 196.855469 176.714844 197.183594 177.453125 197.460938 C 180.8125 198.730469 182.667969 201.617188 184.71875 204.28125 C 185.078125 204.75 185.402344 205.265625 185.652344 205.796875 C 186.515625 207.605469 188.140625 208.050781 189.875 207.992188 C 193.375 207.867188 196.066406 209.710938 198.855469 211.394531 C 199.261719 211.644531 199.832031 211.957031 200.230469 211.855469 C 205.277344 210.550781 209.566406 212.582031 213.851562 214.78125 C 215.398438 215.578125 216.992188 216.347656 218.648438 216.820312 C 226.691406 219.089844 233.027344 223.878906 238.546875 229.960938 C 239.007812 230.46875 239.714844 230.871094 240.382812 231.050781 C 245.128906 232.367188 250.003906 231.824219 254.835938 231.96875 C 261.097656 232.167969 266.792969 233.972656 271.375 238.46875 C 272.757812 239.828125 273.949219 241.386719 275.273438 242.804688 C 275.683594 243.28125 276.28125 243.613281 276.921875 244.089844 Z M 108.34375 310.066406 C 109.070312 311.183594 109.558594 312.09375 110.207031 312.882812 C 110.953125 313.800781 111.859375 313.824219 112.816406 313.066406 C 113.375 312.625 113.890625 312.125 114.433594 311.667969 C 115.359375 310.890625 115.941406 310.085938 115.078125 308.84375 C 114.65625 308.238281 114.527344 307.277344 115.449219 307.046875 C 117.269531 306.589844 118.5625 305.527344 119.828125 304.207031 C 121.195312 302.78125 123.152344 302.394531 125.023438 302 C 128.125 301.355469 130.84375 299.925781 133.359375 298.054688 C 134.414062 297.273438 135.4375 296.453125 136.53125 295.734375 C 140.085938 293.371094 144.203125 293.625 146.835938 296.519531 C 148.070312 297.878906 149.3125 299.019531 151.007812 299.824219 C 153.796875 301.164062 156.355469 302.976562 159.164062 304.253906 C 161.351562 305.246094 163.855469 305.621094 166.007812 304.101562 C 167.710938 302.894531 169.414062 301.527344 170.683594 299.890625 C 173.757812 295.941406 177.574219 292.769531 181.132812 289.320312 C 182.328125 288.164062 183.378906 286.832031 184.65625 285.777344 C 188.542969 282.570312 193.191406 281.234375 198.109375 280.976562 C 202.308594 280.753906 206.378906 280.136719 210.402344 278.90625 C 213.042969 278.101562 215.792969 277.609375 218.5 277.046875 C 219.742188 276.789062 221.023438 276.734375 222.277344 276.53125 C 227.375 275.722656 231.441406 271.410156 231.789062 266.332031 C 231.992188 263.285156 232.046875 260.222656 232.113281 257.167969 C 232.117188 256.859375 231.863281 256.441406 231.601562 256.257812 C 229.539062 254.769531 229.289062 254.089844 230.152344 251.628906 C 231.046875 249.085938 230.722656 246.894531 228.8125 244.839844 C 226.679688 242.550781 224.675781 240.128906 222.746094 237.660156 C 221.628906 236.226562 220.148438 235.402344 218.546875 234.917969 C 216.183594 234.199219 213.996094 233.199219 212.648438 231.152344 C 210.5 227.871094 208.605469 224.425781 206.613281 221.042969 C 206.496094 220.839844 206.480469 220.585938 206.390625 220.367188 C 205.75 218.796875 205.152344 217.210938 204.433594 215.675781 C 203.597656 213.90625 202.308594 212.726562 200.164062 212.878906 C 199.742188 212.910156 199.316406 212.785156 198.898438 212.734375 C 197.765625 215.148438 197.566406 216.464844 197.9375 219.578125 C 198.523438 224.4375 200.265625 228.9375 202.605469 233.148438 C 205.652344 238.632812 209.058594 243.914062 212.25 249.316406 C 215.164062 254.253906 217.898438 259.289062 218.949219 265.023438 C 219.101562 265.839844 219.085938 266.691406 219.148438 267.527344 C 218.550781 262.46875 216.449219 258.003906 214.003906 253.6875 C 211.988281 250.128906 209.828125 246.648438 207.640625 243.191406 C 204.53125 238.28125 201.488281 233.351562 199.351562 227.917969 C 198.066406 224.648438 197.003906 221.316406 196.9375 217.765625 C 196.898438 215.796875 196.882812 213.800781 198.46875 212.175781 C 196.804688 211.269531 195.273438 210.347656 193.660156 209.589844 C 191.617188 208.625 189.632812 208.511719 187.960938 210.433594 C 187.523438 210.941406 186.953125 211.335938 186.472656 211.804688 C 182.972656 215.261719 181.742188 219.429688 182.722656 224.222656 C 183.433594 227.699219 184.828125 230.882812 187.003906 233.707031 C 187.210938 233.972656 187.382812 234.273438 187.660156 234.707031 C 185.214844 233.378906 182.523438 228.570312 181.722656 224.136719 C 180.5625 217.628906 183.199219 212.726562 188.386719 208.816406 C 186.632812 208.816406 184.8125 207.769531 183.339844 209.078125 C 181.65625 210.5625 180.035156 212.1875 178.746094 214.007812 C 176.5 217.191406 176.398438 220.886719 177.128906 224.558594 C 178.121094 229.582031 179.371094 234.558594 180.394531 239.582031 C 180.902344 242.054688 181.355469 244.582031 181.472656 247.097656 C 181.609375 250.101562 181.199219 253.238281 179.285156 255.605469 C 174.035156 262.066406 167.785156 266.835938 158.761719 265.933594 C 158.683594 265.925781 158.589844 265.898438 158.527344 265.929688 C 158.082031 266.105469 157.539062 266.179688 157.210938 266.480469 C 153.828125 269.664062 150.636719 273.050781 147.097656 276.054688 C 137.316406 284.375 126.703125 291.601562 116.125 298.855469 C 114.695312 299.832031 113.027344 300.460938 111.496094 301.292969 C 110.78125 301.679688 109.511719 301.351562 109.554688 302.765625 C 109.585938 303.703125 109.527344 304.652344 109.621094 305.585938 C 109.660156 305.996094 109.976562 306.367188 110.160156 306.769531 C 110.410156 307.3125 110.679688 307.84375 110.882812 308.40625 C 111.175781 309.21875 110.917969 309.707031 109.988281 309.773438 C 109.53125 309.804688 109.085938 309.929688 108.34375 310.066406 Z M 184.410156 206.492188 C 182.105469 203.09375 180.011719 199.566406 175.726562 198.109375 C 172.652344 197.070312 169.652344 195.847656 166.355469 196.523438 C 164.898438 196.828125 163.636719 196.605469 162.316406 196.078125 C 160.816406 195.480469 159.289062 194.636719 157.738281 194.558594 C 155.042969 194.421875 152.457031 195.261719 150.285156 196.957031 C 148.539062 198.316406 146.570312 199.136719 144.4375 199.453125 C 142.402344 199.757812 140.316406 199.71875 138.277344 200 C 131.300781 200.980469 124.492188 202.589844 118.027344 205.507812 C 114.011719 207.320312 109.929688 208.980469 105.890625 210.730469 C 105.589844 210.859375 105.363281 211.179688 105.101562 211.410156 C 105.019531 211.164062 104.933594 210.921875 104.847656 210.675781 C 106.855469 209.21875 109.050781 208.089844 111.367188 207.195312 C 113.679688 206.308594 116.046875 205.554688 118.386719 204.738281 C 118.203125 204.5625 118.0625 204.554688 117.921875 204.570312 C 113.179688 205.328125 108.433594 206.078125 103.695312 206.863281 C 103.226562 206.941406 102.792969 207.222656 102.445312 207.367188 C 104.0625 210.496094 105.601562 213.480469 107.101562 216.371094 C 116.515625 212.664062 125.988281 208.933594 135.464844 205.203125 C 135.515625 205.328125 135.566406 205.449219 135.613281 205.570312 C 126.628906 210.351562 116.613281 212.753906 107.535156 217.535156 C 107.824219 218.035156 108.117188 218.539062 108.433594 219.082031 C 113.261719 216.597656 118.089844 214.296875 123.078125 212.339844 C 123.152344 212.503906 123.226562 212.660156 123.304688 212.824219 C 118.53125 215.109375 113.757812 217.390625 108.816406 219.757812 C 110.996094 222.636719 112.035156 225.859375 112.761719 229.304688 C 113.496094 229.125 114.082031 229.027344 114.640625 228.839844 C 117.511719 227.871094 120.046875 226.273438 122.277344 224.292969 C 128.992188 218.3125 136.714844 213.921875 144.617188 209.78125 C 145.25 209.445312 145.941406 209.21875 146.605469 208.9375 C 146.65625 209.039062 146.71875 209.136719 146.765625 209.242188 C 146.464844 209.460938 146.171875 209.699219 145.847656 209.890625 C 144.75 210.53125 143.648438 211.167969 142.535156 211.777344 C 136.003906 215.347656 129.582031 219.0625 123.957031 224.003906 C 120.746094 226.828125 117.269531 229.257812 113.195312 230.027344 C 112.867188 232.664062 112.554688 235.164062 112.238281 237.667969 C 112.113281 238.613281 111.835938 239.570312 111.90625 240.496094 C 112.023438 242.011719 112.203125 243.558594 112.648438 245.003906 C 113.375 247.367188 115.375 248.746094 117.214844 250.195312 C 120.117188 252.488281 122.195312 255.074219 120.316406 259.164062 C 122.058594 259.960938 123.683594 260.796875 125.378906 261.449219 C 130.585938 263.449219 135.941406 264.628906 141.570312 264.140625 C 143.253906 263.996094 144.523438 263.3125 145.285156 261.777344 C 145.394531 261.566406 145.507812 261.359375 145.632812 261.152344 C 148.582031 256.117188 152.570312 252.792969 158.796875 253.199219 C 161.308594 253.363281 163.402344 252.65625 164.980469 250.601562 C 165.289062 250.207031 165.765625 249.9375 166.179688 249.628906 C 167.582031 248.585938 169.039062 248.492188 170.503906 249.460938 C 171.53125 250.140625 172.445312 251 173.511719 251.585938 C 174.84375 252.320312 176.257812 252.945312 177.691406 253.441406 C 178.660156 253.773438 179.257812 253.273438 179.550781 252.195312 C 180.527344 248.65625 180.484375 245.136719 179.695312 241.582031 C 178.410156 235.800781 177.035156 230.042969 175.910156 224.230469 C 175.183594 220.480469 175.574219 216.773438 177.703125 213.4375 C 178.238281 212.601562 178.875 211.828125 179.464844 211.027344 C 179.410156 210.917969 179.359375 210.8125 179.300781 210.707031 C 178.984375 210.863281 178.683594 211.070312 178.351562 211.1875 C 172.863281 213.183594 169.523438 217.234375 167.667969 222.597656 C 165.894531 227.707031 165.886719 232.96875 166.65625 238.257812 C 166.695312 238.535156 166.691406 238.816406 166.707031 239.089844 C 165.457031 234.992188 165.445312 230.8125 166.1875 226.695312 C 166.65625 224.105469 167.398438 221.457031 168.609375 219.140625 C 170.992188 214.589844 174.503906 211.183594 179.878906 210.226562 C 180.582031 210.105469 181.183594 209.414062 181.832031 208.980469 C 181.777344 208.867188 181.71875 208.746094 181.664062 208.632812 C 179.894531 208.828125 178.070312 208.804688 176.371094 209.257812 C 170.082031 210.957031 164.335938 213.839844 159.214844 217.84375 C 153.394531 222.394531 149.105469 228.351562 144.699219 234.171875 C 142.511719 237.0625 140.277344 239.882812 137.464844 242.199219 C 135.4375 243.871094 133.234375 245.214844 130.605469 245.578125 C 129.203125 245.777344 127.757812 245.640625 126.335938 245.65625 C 126.402344 245.253906 126.457031 245.179688 126.523438 245.164062 C 126.636719 245.140625 126.753906 245.148438 126.871094 245.15625 C 130.703125 245.527344 134.042969 244.304688 136.84375 241.765625 C 138.75 240.039062 140.578125 238.195312 142.21875 236.214844 C 145.605469 232.113281 148.652344 227.71875 152.183594 223.746094 C 160.351562 214.570312 170.042969 208.164062 182.886719 207.96875 C 183.371094 207.964844 183.847656 207.65625 184.332031 207.480469 C 176.675781 206.382812 169.144531 206.824219 161.804688 208.746094 C 154.535156 210.644531 147.457031 213.175781 140.691406 216.496094 C 147.046875 212.742188 153.992188 210.40625 161.054688 208.492188 C 168.152344 206.566406 175.433594 205.859375 182.824219 206.503906 C 182.605469 206.226562 182.386719 206.070312 182.15625 205.941406 C 178.089844 203.660156 173.648438 202.632812 169.074219 202.199219 C 164.40625 201.761719 160.023438 203.074219 155.738281 204.792969 C 155.230469 204.996094 154.695312 205.132812 154.175781 205.300781 C 154.144531 205.195312 154.117188 205.101562 154.085938 204.996094 C 156.667969 203.199219 159.617188 202.234375 162.683594 201.824219 C 170.414062 200.820312 177.597656 202.703125 184.410156 206.492188 Z M 160.015625 309.382812 C 160.480469 309.574219 160.695312 309.667969 160.910156 309.746094 C 164.804688 311.125 168.78125 310.199219 172.710938 310.03125 C 175.078125 309.929688 177.273438 309.84375 179.53125 310.949219 C 186.453125 314.339844 190.742188 313.539062 196.179688 309.398438 C 201.351562 305.464844 207.117188 303.738281 213.417969 303.375 C 216.738281 303.183594 220.089844 303.421875 223.40625 303.167969 C 226.605469 302.917969 229.765625 302.242188 232.957031 301.847656 C 234.65625 301.640625 235.804688 300.859375 236.570312 299.332031 C 238.234375 296.035156 239.964844 292.773438 241.648438 289.488281 C 241.882812 289.03125 242.097656 288.535156 242.164062 288.035156 C 242.574219 285.050781 243.050781 282.070312 243.28125 279.070312 C 243.515625 276.09375 242.460938 273.738281 239.484375 272.488281 C 238.226562 271.960938 237.214844 270.992188 237.1875 269.535156 C 237.148438 267.289062 237.183594 265.023438 237.429688 262.796875 C 237.566406 261.53125 237.488281 260.488281 236.507812 259.675781 C 235.515625 258.855469 234.464844 258.109375 233.230469 257.175781 C 233.207031 257.867188 233.191406 258.25 233.179688 258.636719 C 233.046875 262.042969 233.265625 265.515625 232.683594 268.851562 C 231.75 274.246094 228.765625 278.328125 223.753906 280.917969 C 218.574219 283.601562 213.527344 286.539062 208.421875 289.363281 C 205.222656 291.128906 202.128906 293.128906 198.796875 294.601562 C 192.660156 297.3125 186.378906 299.675781 180.183594 302.246094 C 178.097656 303.113281 176.035156 304.066406 174.058594 305.144531 C 171.527344 306.527344 168.914062 307.597656 166.046875 308.070312 C 164.097656 308.382812 162.1875 308.898438 160.015625 309.382812 Z M 286.859375 239.378906 C 287.507812 244.835938 283.003906 251.277344 277.886719 252.476562 C 275.332031 253.078125 272.566406 253.46875 269.988281 253.167969 C 264.007812 252.46875 258.074219 251.285156 252.125 250.304688 C 249.078125 249.804688 246.035156 249.261719 242.96875 248.871094 C 242.121094 248.761719 241.214844 249.125 240.25 249.285156 C 241.515625 251.339844 241.785156 251.449219 243.777344 251.484375 C 244.71875 251.503906 245.695312 251.617188 246.585938 251.914062 C 249.144531 252.765625 251.714844 253.632812 254.203125 254.683594 C 258.675781 256.566406 263.128906 258.394531 267.914062 259.433594 C 273.238281 260.589844 278.242188 260.035156 283.144531 257.792969 C 285.640625 256.648438 287.554688 254.996094 288.496094 252.347656 C 288.617188 251.992188 288.847656 251.679688 289.03125 251.34375 C 289.136719 251.414062 289.246094 251.488281 289.347656 251.554688 C 288.722656 254.019531 287.503906 256.128906 285.25 257.488281 C 282.667969 259.039062 279.863281 260.042969 276.902344 260.554688 C 271.246094 261.539062 265.914062 259.980469 260.695312 258.183594 C 256.234375 256.652344 251.921875 254.699219 247.519531 252.972656 C 246.019531 252.382812 244.464844 251.980469 242.710938 252.417969 C 243.160156 253.085938 243.488281 253.675781 243.90625 254.199219 C 244.285156 254.675781 244.707031 255.371094 245.199219 255.457031 C 248.820312 256.101562 252.0625 257.683594 255.261719 259.375 C 257.367188 260.484375 259.40625 261.742188 261.507812 262.859375 C 269.019531 266.859375 276.683594 267.265625 284.417969 263.597656 C 289.234375 261.320312 293.449219 258.28125 296.0625 253.4375 C 296.136719 253.300781 296.339844 253.238281 296.785156 252.9375 C 296.597656 253.609375 296.597656 254.035156 296.390625 254.304688 C 295.160156 255.9375 294.074219 257.746094 292.597656 259.125 C 284.378906 266.796875 272.25 270.085938 260.519531 263.308594 C 258.148438 261.933594 255.761719 260.5625 253.296875 259.367188 C 250.9375 258.226562 248.46875 257.320312 246.054688 256.308594 C 245.996094 256.421875 245.941406 256.535156 245.878906 256.648438 C 246.824219 258.015625 247.683594 259.445312 248.726562 260.722656 C 249.539062 261.710938 250.464844 262.699219 251.539062 263.351562 C 257.71875 267.089844 264.5 269.121094 271.601562 270.167969 C 271.929688 270.214844 272.238281 270.371094 272.550781 270.472656 C 272.507812 270.597656 272.457031 270.722656 272.414062 270.847656 C 264.960938 269.785156 257.828125 267.664062 251.164062 264.027344 C 256.820312 269.839844 264.136719 272.066406 271.710938 273.769531 C 267.011719 273.460938 262.660156 271.847656 258.121094 269.898438 C 258.410156 270.195312 258.476562 270.292969 258.566406 270.359375 C 263.320312 274.058594 268.679688 276.019531 274.714844 276.371094 C 279.835938 276.667969 284.921875 277.3125 289.683594 279.488281 C 290.679688 279.941406 291.769531 280.195312 292.925781 280.578125 C 293.207031 279.964844 293.53125 279.453125 293.6875 278.894531 C 294.222656 276.957031 294.445312 274.992188 293.847656 273.023438 C 293.476562 271.796875 293.503906 270.714844 294.570312 269.796875 C 295.40625 269.074219 296.132812 268.230469 296.945312 267.480469 C 297.511719 266.957031 297.949219 266.519531 297.378906 265.667969 C 297.203125 265.414062 297.363281 264.648438 297.632812 264.417969 C 298.9375 263.316406 298.929688 262.667969 297.410156 261.589844 C 293.046875 266.289062 287.898438 269.304688 281.296875 269.164062 C 281.414062 268.964844 281.59375 268.910156 281.777344 268.886719 C 288.152344 268.039062 293.640625 265.628906 297.449219 260.152344 C 298.757812 258.265625 300.265625 256.511719 301.550781 254.605469 C 302.960938 252.511719 304.191406 250.296875 304.125 247.617188 C 301.636719 247.878906 300.085938 249.207031 299.210938 251.449219 C 299.097656 251.726562 298.664062 251.871094 298.382812 252.082031 C 298.289062 251.773438 298.082031 251.445312 298.117188 251.148438 C 298.261719 249.96875 298.503906 248.804688 298.65625 247.625 C 298.730469 247.046875 298.878906 246.347656 298.644531 245.886719 C 297.492188 243.695312 296.21875 241.566406 295.164062 239.71875 C 293.929688 239.824219 293.050781 240.007812 292.183594 239.949219 C 290.453125 239.839844 288.738281 239.59375 286.859375 239.378906 Z M 119.304688 258.746094 C 120.152344 257.125 120.261719 255.816406 119.554688 254.386719 C 118.632812 252.519531 117.03125 251.355469 115.460938 250.148438 C 112.535156 247.890625 110.679688 245.035156 110.78125 241.238281 C 110.832031 239.339844 111.074219 237.429688 111.460938 235.574219 C 112.367188 231.191406 111.421875 227.117188 109.527344 223.226562 C 108.277344 220.667969 106.726562 218.25 105.382812 215.730469 C 104.507812 214.085938 103.796875 212.351562 102.960938 210.6875 C 102.394531 209.554688 101.570312 208.523438 101.160156 207.34375 C 100.769531 206.21875 100.015625 205.660156 99.027344 205.558594 C 95.15625 205.152344 92.527344 203.269531 91.320312 199.5 C 90.902344 198.183594 89.90625 197.410156 88.566406 197.414062 C 87.078125 197.417969 85.574219 197.59375 84.105469 197.871094 C 82.21875 198.230469 80.847656 199.4375 80.300781 201.222656 C 79.875 202.589844 79.964844 204.105469 79.765625 205.546875 C 79.507812 207.382812 80.105469 208.980469 81.269531 210.289062 C 83.222656 212.492188 84.21875 215.085938 84.691406 217.898438 C 85.113281 220.417969 86.109375 222.695312 87.441406 224.828125 C 87.96875 225.679688 88.679688 226.496094 89.480469 227.09375 C 93.226562 229.878906 96 233.328125 97.964844 237.621094 C 99.15625 240.207031 100.933594 242.59375 102.796875 244.777344 C 105.089844 247.46875 108.320312 248.980469 111.371094 250.703125 C 112.515625 251.351562 113.523438 252.308594 114.421875 253.289062 C 115.570312 254.542969 116.503906 255.984375 117.597656 257.296875 C 118.039062 257.8125 118.652344 258.195312 119.304688 258.746094 Z M 92.679688 252.105469 C 92.664062 251.964844 92.640625 251.816406 92.621094 251.675781 C 96.980469 251.089844 101.359375 250.582031 105.402344 248.613281 C 104.472656 247.5 103.453125 246.941406 101.980469 247.136719 C 100.640625 247.308594 99.273438 247.207031 97.914062 247.226562 C 97.910156 247.097656 97.90625 246.964844 97.902344 246.835938 C 99.492188 246.703125 101.078125 246.574219 102.585938 246.453125 C 101.566406 245.140625 100.472656 243.972656 99.660156 242.640625 C 98.09375 240.0625 96.605469 237.441406 95.25 234.75 C 94.28125 232.824219 93.054688 231.722656 90.789062 232.183594 C 90.210938 232.300781 89.605469 232.246094 89.007812 232.292969 C 87.558594 232.40625 86.6875 233.035156 86.417969 234.441406 C 85.933594 236.976562 85.457031 239.519531 86.214844 242.101562 C 86.550781 243.246094 86.75 244.425781 87.066406 245.574219 C 87.347656 246.585938 87.152344 247.464844 86.464844 248.226562 C 85.257812 249.558594 84.890625 251.191406 84.609375 252.910156 C 84.5 253.585938 84.121094 254.285156 83.6875 254.828125 C 82.882812 255.84375 81.808594 256.664062 81.117188 257.742188 C 80.761719 258.296875 80.671875 259.429688 81.007812 259.941406 C 81.957031 261.390625 83.269531 262.480469 85.171875 262.578125 C 87.203125 262.683594 89.132812 263.128906 91.015625 264.035156 C 92.492188 264.738281 94.179688 264.992188 95.75 265.519531 C 96.484375 265.761719 97.285156 266.046875 97.84375 266.546875 C 99.433594 267.976562 101.058594 269.417969 102.398438 271.066406 C 103.90625 272.925781 105.546875 273.523438 107.8125 272.734375 C 111.011719 271.613281 114.183594 270.234375 117.722656 270.925781 C 117.828125 270.941406 117.953125 270.890625 118.070312 270.867188 C 121.875 269.960938 125.53125 268.636719 129.003906 266.859375 C 129.847656 266.425781 130.46875 265.554688 131.453125 264.640625 C 125.976562 263.226562 121.191406 261.367188 116.882812 258.457031 C 114.808594 259.992188 113.023438 260.734375 111.777344 260.574219 C 113.347656 259.695312 114.90625 258.824219 116.546875 257.902344 C 115.378906 256.417969 114.386719 255.15625 113.402344 253.90625 C 109.136719 256.59375 106.453125 257.832031 105.078125 257.75 C 107.707031 256.296875 110.324219 254.847656 113.164062 253.285156 C 112.414062 252.714844 112.007812 252.339844 111.539062 252.058594 C 110.136719 251.234375 108.691406 250.480469 107.300781 249.632812 C 106.652344 249.238281 106.109375 249.203125 105.417969 249.5 C 102.292969 250.839844 99.019531 251.648438 95.628906 251.957031 C 94.636719 252.046875 93.65625 252.0625 92.679688 252.105469 Z M 82.464844 241.121094 C 82.21875 241.417969 82.011719 241.601562 81.882812 241.824219 C 78.6875 247.273438 75.492188 252.71875 72.328125 258.191406 C 70.597656 261.183594 70.332031 264.394531 70.9375 267.761719 C 71.136719 268.878906 71.535156 269.382812 72.710938 269.167969 C 73.917969 268.945312 75.152344 268.824219 76.363281 268.628906 C 77.121094 268.5 77.4375 268.78125 77.535156 269.546875 C 77.757812 271.273438 77.167969 272.296875 75.472656 272.96875 C 74.996094 273.160156 74.535156 273.394531 74.066406 273.605469 C 74.484375 274.003906 74.855469 274.199219 75.210938 274.175781 C 77.875 274.015625 79.289062 275.550781 80.214844 277.777344 C 80.628906 278.769531 81.019531 279.765625 81.484375 280.726562 C 82.5 282.859375 83.757812 284.59375 86.550781 284.414062 C 87.390625 284.355469 88.289062 284.886719 89.113281 285.242188 C 89.445312 285.382812 89.796875 285.722656 89.925781 286.046875 C 90.558594 287.683594 91.101562 289.335938 90.628906 291.140625 C 90.554688 291.410156 90.65625 291.929688 90.839844 292.035156 C 91.945312 292.644531 93.050781 293.464844 94.246094 293.640625 C 96.402344 293.953125 97.8125 295.054688 98.804688 296.859375 C 99.625 298.355469 100.363281 299.898438 101.230469 301.371094 C 101.496094 301.835938 102.023438 302.355469 102.496094 302.425781 C 102.839844 302.476562 103.414062 301.910156 103.664062 301.496094 C 104.1875 300.636719 104.769531 300.457031 105.75 300.703125 C 106.808594 300.972656 107.964844 301.160156 109.019531 301.003906 C 109.964844 300.863281 111.167969 300.445312 111.671875 299.730469 C 113.007812 297.867188 113.984375 295.78125 114.292969 293.421875 C 114.605469 291.023438 115.542969 288.773438 117.007812 286.886719 C 121.773438 280.769531 127.515625 275.777344 134.539062 272.378906 C 136.535156 271.417969 138.679688 270.742188 140.605469 269.65625 C 143.171875 268.21875 145.363281 266.121094 148.359375 265.351562 C 146.839844 265.191406 145.347656 265.167969 143.859375 265.191406 C 141.238281 265.226562 138.621094 265.328125 136.003906 265.316406 C 135.3125 265.308594 134.945312 265.457031 134.613281 266.066406 C 132.636719 269.679688 129.859375 272.480469 126.175781 274.367188 C 124.726562 275.105469 123.363281 276.0625 121.855469 276.628906 C 119.910156 277.363281 117.878906 278.179688 115.847656 278.296875 C 112.734375 278.484375 109.679688 278.761719 106.660156 279.535156 C 104.667969 280.046875 102.691406 279.96875 100.644531 279.644531 C 98.105469 279.238281 95.96875 277.945312 93.671875 276.988281 C 87.507812 274.414062 82.640625 270.207031 78.457031 265.117188 C 78.230469 264.839844 78.011719 264.539062 77.890625 264.210938 C 76.601562 260.664062 75.070312 257.121094 76.9375 253.308594 C 77.234375 252.707031 77.691406 252.128906 78.214844 251.707031 C 78.96875 251.089844 79.847656 250.621094 80.550781 250.167969 C 79.960938 249.546875 79.453125 249.011719 78.949219 248.488281 C 79.664062 247.855469 80.308594 247.105469 81.109375 246.632812 C 81.730469 246.269531 82.5625 246.273438 83.292969 246.117188 C 83.976562 245.980469 84.457031 245.65625 84.140625 244.894531 C 83.640625 243.65625 83.0625 242.445312 82.464844 241.121094 Z M 229.863281 273.40625 C 227.089844 276.519531 223.507812 277.707031 219.535156 278 C 216.257812 278.242188 213.175781 279.25 210.03125 280.140625 C 206.660156 281.097656 203.128906 281.714844 199.636719 281.972656 C 193.117188 282.453125 187.164062 283.949219 182.839844 289.324219 C 182.589844 289.632812 182.277344 289.890625 181.996094 290.160156 C 179.257812 292.808594 176.5 295.425781 173.785156 298.097656 C 171.695312 300.152344 169.675781 302.277344 167.617188 304.359375 C 166.503906 305.492188 165.132812 305.996094 163.546875 306.066406 C 160.332031 306.207031 157.621094 304.953125 154.96875 303.292969 C 152.859375 301.976562 150.574219 300.933594 148.382812 299.742188 C 148.066406 299.570312 147.730469 299.3125 147.570312 299.007812 C 146.679688 297.332031 145.46875 296.007812 143.636719 295.449219 C 141.292969 294.738281 139.160156 295.445312 137.160156 296.660156 C 136.417969 297.113281 135.742188 297.683594 135.0625 298.226562 C 131.941406 300.710938 128.53125 302.582031 124.554688 303.324219 C 122.773438 303.65625 121.023438 304.25 119.902344 305.753906 C 119.207031 306.679688 118.398438 307.246094 117.363281 307.589844 C 116.890625 307.746094 116.425781 307.914062 115.859375 308.105469 C 116.445312 309.164062 117.210938 310.152344 116.257812 311.242188 C 115.539062 312.0625 114.757812 312.824219 113.984375 313.636719 C 115.640625 314.417969 116.386719 314.246094 117.3125 312.941406 C 117.628906 312.488281 117.984375 312.054688 118.289062 311.589844 C 118.992188 310.515625 120.015625 310.035156 121.238281 310.164062 C 122.25 310.277344 123.234375 310.628906 124.238281 310.832031 C 126.054688 311.203125 127.863281 311.734375 129.695312 311.847656 C 131.6875 311.972656 133.359375 310.882812 134.777344 309.550781 C 135.839844 308.554688 136.816406 307.464844 136.605469 305.78125 C 136.5625 305.457031 136.855469 305.03125 137.105469 304.738281 C 138.570312 303.046875 140.472656 302.789062 142.535156 303.199219 C 147.125 304.109375 151.359375 306.039062 155.644531 307.824219 C 157 308.390625 158.320312 308.765625 159.789062 308.433594 C 161.761719 307.976562 163.726562 307.453125 165.726562 307.136719 C 168.570312 306.683594 171.125 305.597656 173.605469 304.191406 C 175.226562 303.273438 176.894531 302.417969 178.613281 301.699219 C 181.90625 300.308594 185.265625 299.082031 188.558594 297.703125 C 192.550781 296.03125 196.628906 294.503906 200.445312 292.488281 C 208.105469 288.453125 215.617188 284.136719 223.1875 279.933594 C 223.746094 279.625 224.3125 279.332031 224.832031 278.976562 C 226.96875 277.542969 228.84375 275.867188 229.863281 273.40625 Z M 79.640625 215.140625 C 79.160156 213.957031 78.441406 212.691406 77.050781 212.105469 C 74.574219 211.058594 72.066406 210.066406 69.527344 209.195312 C 66.003906 207.984375 62.453125 206.914062 58.710938 206.484375 C 54.871094 206.054688 51.460938 206.738281 48.445312 209.210938 C 47.101562 210.304688 46.636719 210.304688 45.410156 209.070312 C 43.605469 207.242188 41.5 205.957031 39.027344 205.296875 C 36.648438 204.660156 34.445312 206.25 34.238281 208.71875 C 34.164062 209.5625 33.832031 209.722656 33.066406 209.46875 C 32.492188 209.273438 31.859375 209.234375 31.25 209.128906 C 31.179688 209.238281 31.105469 209.351562 31.03125 209.460938 C 31.140625 209.675781 31.273438 209.875 31.355469 210.09375 C 32.191406 212.234375 34.125 213.082031 35.996094 213.9375 C 36.988281 214.394531 38.082031 214.820312 39.144531 214.847656 C 40.269531 214.878906 41.261719 215.015625 42.148438 215.695312 C 43.058594 216.398438 44.046875 217.03125 44.816406 217.871094 C 48.410156 221.808594 52.609375 224.78125 57.898438 225.847656 C 61.707031 226.613281 65.570312 227.082031 69.410156 227.675781 C 71.253906 227.960938 73.097656 228.203125 74.929688 228.539062 C 75.726562 228.683594 76.207031 229.039062 75.351562 229.871094 C 74.671875 230.527344 73.859375 231.246094 73.597656 232.089844 C 73.214844 233.3125 73.257812 234.679688 73.175781 235.988281 C 73.167969 236.128906 73.480469 236.371094 73.683594 236.421875 C 76.191406 237.097656 78.710938 237.738281 81.355469 238.429688 C 80.632812 236.722656 80.039062 235.125 79.289062 233.617188 C 78.730469 232.496094 79.136719 231.648438 79.859375 230.941406 C 81.035156 229.785156 82.34375 228.949219 84.179688 229.082031 C 85.925781 229.199219 87.691406 228.976562 89.445312 228.902344 C 85.945312 226.140625 84.761719 222.257812 83.539062 218.484375 C 80.875 218.621094 78.265625 218.773438 75.652344 218.867188 C 75.269531 218.882812 74.867188 218.644531 74.480469 218.519531 C 74.71875 218.148438 74.863281 217.621094 75.199219 217.425781 C 76.601562 216.625 78.050781 215.941406 79.640625 215.140625 Z M 79.597656 248.578125 C 80.125 248.78125 80.5625 248.933594 80.988281 249.117188 C 81.9375 249.515625 82.039062 250.015625 81.230469 250.667969 C 80.453125 251.285156 79.589844 251.78125 78.789062 252.363281 C 78.445312 252.613281 78.046875 252.882812 77.878906 253.25 C 76.042969 257.199219 77.199219 260.972656 79.160156 264.367188 C 80.433594 266.574219 82.5 268.382812 84.421875 270.136719 C 85.925781 271.507812 87.695312 272.644531 89.464844 273.679688 C 91.726562 275 94.089844 276.140625 96.441406 277.304688 C 99.746094 278.941406 103.160156 279.410156 106.839844 278.621094 C 109.730469 278 112.714844 277.832031 115.664062 277.453125 C 116.566406 277.339844 117.5625 277.40625 118.351562 277.035156 C 121.652344 275.492188 125.007812 274.011719 128.109375 272.132812 C 130.738281 270.542969 132.742188 268.167969 133.976562 265.226562 C 132.867188 264.789062 131.953125 264.613281 131.238281 265.984375 C 130.871094 266.695312 130.042969 267.246094 129.316406 267.679688 C 128.292969 268.277344 127.179688 268.730469 126.074219 269.167969 C 122.390625 270.644531 118.734375 272.1875 114.59375 271.777344 C 113.710938 271.691406 112.757812 272.089844 111.855469 272.34375 C 110.0625 272.851562 108.296875 273.449219 106.496094 273.9375 C 105.003906 274.34375 103.765625 273.789062 102.742188 272.695312 C 102.015625 271.910156 101.332031 271.074219 100.550781 270.34375 C 98.503906 268.410156 96.75 265.984375 93.484375 266.019531 C 93.1875 266.023438 92.882812 265.835938 92.59375 265.703125 C 89.960938 264.472656 87.3125 263.332031 84.316406 263.335938 C 83.695312 263.335938 83 262.976562 82.46875 262.597656 C 79.433594 260.453125 78.820312 258.3125 81.769531 255.398438 C 82.136719 255.039062 82.59375 254.746094 82.886719 254.332031 C 83.25 253.8125 83.542969 253.222656 83.753906 252.625 C 84.253906 251.210938 84.371094 249.546875 85.21875 248.410156 C 86.261719 247.019531 86.320312 245.804688 85.816406 244.34375 C 84.75 241.253906 84.730469 238.113281 85.316406 234.9375 C 85.773438 232.472656 86.859375 231.523438 89.335938 231.433594 C 90.335938 231.398438 91.339844 231.339844 92.441406 231.28125 C 91.5625 230.066406 90.664062 229.53125 89.222656 229.71875 C 87.382812 229.964844 85.5 229.917969 83.636719 229.925781 C 82.113281 229.933594 81.136719 230.828125 80.273438 231.871094 C 80.050781 232.144531 80.050781 232.78125 80.199219 233.148438 C 81.65625 236.710938 83.132812 240.265625 84.6875 243.785156 C 85.628906 245.925781 85.207031 246.746094 82.859375 247.054688 C 81.671875 247.21875 80.507812 247.4375 79.597656 248.578125 Z M 237.402344 328.835938 C 236.464844 328.59375 235.636719 328.367188 234.808594 328.164062 C 231.59375 327.390625 228.773438 326.042969 226.875 323.140625 C 223.214844 317.539062 220.464844 311.605469 219.855469 304.710938 C 218.578125 305.039062 217.207031 305.417969 215.824219 305.722656 C 215.054688 305.890625 214.8125 306.316406 215.03125 306.992188 C 215.679688 308.988281 216.332031 310.976562 217.0625 312.9375 C 217.371094 313.773438 217.886719 314.523438 218.304688 315.316406 C 215.777344 312.832031 214.46875 309.773438 214.058594 306.316406 C 213.863281 306.308594 213.746094 306.28125 213.640625 306.3125 C 211.996094 306.765625 210.359375 307.277344 208.699219 307.679688 C 206.476562 308.214844 206.070312 309.335938 206.207031 311.46875 C 206.265625 312.398438 206.683594 313.300781 206.929688 314.21875 C 207 314.480469 207.03125 314.75 207.085938 315.015625 C 205.695312 313.28125 204.890625 311.425781 205.589844 308.988281 C 204.929688 309.367188 204.566406 309.585938 204.179688 309.8125 C 204.441406 310.832031 204.824219 311.777344 204.914062 312.746094 C 205.398438 317.660156 207.433594 322.074219 209.296875 326.539062 C 209.996094 328.207031 211.066406 328.878906 212.847656 328.6875 C 214.582031 328.496094 216.296875 328.132812 218.015625 327.847656 C 220.234375 327.480469 222.375 327.304688 223.902344 329.519531 C 224.375 330.203125 225.183594 330.316406 226.078125 329.996094 C 222.945312 327.398438 221.125 324.679688 221.019531 322.171875 C 221.648438 323.246094 222.046875 324.105469 222.601562 324.847656 C 223.558594 326.144531 224.515625 327.472656 225.664062 328.589844 C 226.296875 329.199219 227.339844 329.773438 228.167969 329.730469 C 231.191406 329.582031 234.214844 329.167969 237.402344 328.835938 Z M 155.886719 265.945312 C 152.175781 264.996094 148.730469 265.898438 145.644531 267.609375 C 142.425781 269.390625 139.433594 271.535156 135.980469 272.945312 C 130.492188 275.1875 126.085938 279.042969 121.800781 283.027344 C 119.6875 284.992188 117.695312 287.078125 116.644531 289.785156 C 115.4375 292.886719 114.5 296.09375 113.335938 299.585938 C 128.070312 288.925781 143.464844 279.429688 155.886719 265.945312 Z M 234.757812 317.953125 C 234.621094 317.878906 234.460938 317.832031 234.355469 317.734375 C 230.46875 313.941406 226.269531 310.390625 224.4375 304.992188 C 224.339844 304.695312 223.890625 304.511719 223.609375 304.28125 C 223.527344 304.378906 223.445312 304.484375 223.363281 304.582031 C 224.703125 310.082031 228.339844 314.226562 231.664062 318.5625 C 227.011719 314.90625 224 310.171875 222.425781 304.550781 C 221.1875 304.570312 221.121094 304.574219 221.136719 305.585938 C 221.15625 306.691406 221.160156 307.832031 221.453125 308.878906 C 221.988281 310.785156 222.582031 312.714844 223.433594 314.492188 C 224.800781 317.347656 226.339844 320.128906 227.941406 322.859375 C 228.480469 323.789062 229.328125 324.625 230.21875 325.25 C 232.371094 326.769531 234.9375 327.238281 237.496094 327.820312 C 238.679688 325.507812 240.261719 323.398438 239.917969 320.589844 C 239.839844 319.949219 240.03125 319.238281 240.25 318.605469 C 240.964844 316.558594 240.726562 314.660156 239.695312 312.761719 C 238.621094 310.792969 238.050781 308.667969 237.8125 306.40625 C 237.644531 304.851562 236.980469 303.339844 236.609375 302.074219 C 234.488281 302.566406 232.703125 302.976562 230.734375 303.433594 C 231.90625 304.472656 232.992188 305.445312 234.078125 306.414062 C 233.996094 306.515625 233.914062 306.613281 233.832031 306.710938 C 232.609375 305.808594 231.390625 304.890625 230.152344 304.007812 C 229.816406 303.769531 229.40625 303.433594 229.058594 303.460938 C 227.734375 303.574219 226.421875 303.828125 225.007812 304.046875 C 226.824219 309.839844 231.128906 313.609375 234.757812 317.953125 Z M 160.921875 316.78125 C 160.957031 316.914062 161.011719 317.222656 161.117188 317.507812 C 162.835938 321.90625 165.46875 325.789062 168.007812 329.722656 C 168.851562 331.023438 169.90625 332.046875 171.351562 332.660156 C 173 333.355469 174.628906 334.070312 176.261719 334.796875 C 177.203125 335.210938 177.691406 334.742188 177.726562 333.902344 C 177.785156 332.71875 177.746094 331.515625 177.582031 330.351562 C 177.382812 328.941406 177.824219 327.90625 178.894531 326.996094 C 184.320312 322.382812 190.089844 318.25 196.199219 314.601562 C 196.886719 314.191406 197.828125 314.109375 198.660156 314.039062 C 199.601562 313.960938 200.574219 314.1875 201.503906 314.066406 C 203.765625 313.78125 204.058594 313.257812 203.386719 311.136719 C 203.292969 310.847656 203.167969 310.566406 203.09375 310.378906 C 202.035156 310.589844 201.078125 310.894531 200.105469 310.957031 C 198.191406 311.074219 196.625 311.839844 195.175781 313.0625 C 193.765625 314.257812 192.367188 315.636719 190.714844 316.351562 C 186.65625 318.109375 182.296875 318.636719 177.882812 318.472656 C 176.066406 318.410156 174.402344 317.777344 173.023438 316.496094 C 171.789062 315.351562 170.425781 314.59375 168.605469 315.046875 C 166.085938 315.683594 163.53125 316.199219 160.921875 316.78125 Z M 238.480469 247.671875 C 240.601562 246.027344 242.992188 245.589844 245.507812 245.660156 C 247.492188 245.714844 249.480469 245.804688 251.460938 245.917969 C 256.355469 246.210938 261.144531 245.667969 265.8125 244.144531 C 267.808594 243.492188 269.628906 242.527344 270.90625 240.800781 C 271.125 240.496094 271.175781 239.773438 270.96875 239.503906 C 270.394531 238.757812 269.722656 238.023438 268.941406 237.511719 C 263.542969 233.980469 257.660156 232.371094 251.636719 233.097656 C 250.476562 234.378906 249.699219 235.683594 248.558594 236.40625 C 246.367188 237.808594 243.953125 238.867188 241.652344 240.105469 C 240.296875 240.835938 238.84375 241.472656 237.671875 242.433594 C 235.78125 243.988281 235.835938 245.0625 237.523438 246.738281 C 237.8125 247.007812 238.089844 247.289062 238.480469 247.671875 Z M 223.109375 222.660156 C 223.179688 222.542969 223.253906 222.429688 223.320312 222.308594 C 223.882812 222.5625 224.496094 222.742188 224.996094 223.078125 C 227.621094 224.859375 230.210938 226.6875 232.808594 228.5 C 234.230469 229.496094 235.433594 230.984375 237.765625 230.441406 C 236.105469 228.886719 234.609375 227.375 232.992188 225.992188 C 228.550781 222.171875 223.625 219.21875 217.910156 217.683594 C 216.582031 217.328125 215.183594 216.90625 214.066406 216.15625 C 211.453125 214.382812 208.507812 213.480469 205.5625 212.554688 C 204.875 212.339844 204.097656 212.417969 203.152344 212.351562 C 205.386719 214.8125 206.917969 217.351562 207.476562 220.410156 C 207.535156 220.710938 207.707031 221 207.851562 221.28125 C 208.84375 223.140625 209.78125 225.023438 210.847656 226.835938 C 212.386719 229.4375 213.984375 232.011719 216.921875 233.335938 C 218.695312 234.136719 221.042969 233.851562 222.425781 232.558594 C 217.171875 230.503906 213.238281 227.003906 210.738281 221.953125 C 211.535156 222.574219 212.175781 223.347656 212.785156 224.136719 C 215.285156 227.359375 218.183594 230.089844 222.085938 231.507812 C 222.871094 231.796875 223.828125 231.980469 224.625 231.816406 C 227.480469 231.246094 230.308594 230.503906 233.277344 229.792969 C 229.9375 227.445312 226.523438 225.050781 223.109375 222.660156 Z M 144.902344 263.84375 C 146.21875 263.925781 147.1875 264 148.164062 264.054688 C 152.878906 264.273438 157.597656 264.550781 162.320312 264.679688 C 164.347656 264.738281 166.375 264.421875 168.183594 263.359375 C 171.582031 261.351562 174.832031 259.152344 177.394531 256.085938 C 177.785156 255.625 178.117188 255.109375 178.515625 254.5625 C 177.609375 254.386719 176.789062 254.410156 176.167969 254.070312 C 174.472656 253.152344 172.808594 252.152344 171.234375 251.039062 C 168.796875 249.304688 167.605469 249.167969 165.664062 251.386719 C 163.628906 253.703125 161.199219 254.40625 158.324219 254.203125 C 154.832031 253.949219 151.871094 255.210938 149.554688 257.703125 C 147.878906 259.511719 146.546875 261.640625 144.902344 263.84375 Z M 239.175781 248.109375 C 239.160156 248.25 239.144531 248.386719 239.128906 248.53125 C 239.484375 248.609375 239.902344 248.839844 240.1875 248.730469 C 242.410156 247.894531 244.660156 248.128906 246.894531 248.550781 C 250.441406 249.226562 253.957031 250.078125 257.507812 250.726562 C 263.011719 251.734375 268.484375 252.917969 274.160156 252.503906 C 280.046875 252.074219 283.78125 248.945312 285.828125 243.632812 C 286.292969 242.4375 286.25 241.042969 286.464844 239.5625 C 282.027344 239.636719 278.5625 240.582031 277.511719 245.238281 C 274.949219 244.371094 273.554688 242.371094 271.832031 240.648438 C 269.714844 243.492188 266.707031 244.855469 263.445312 245.511719 C 260.347656 246.136719 257.175781 246.523438 254.015625 246.65625 C 250.535156 246.804688 247.035156 246.511719 243.546875 246.488281 C 241.914062 246.484375 240.472656 247.160156 239.175781 248.109375 Z M 154.007812 316.347656 C 155.710938 316.011719 157.183594 315.476562 158.660156 315.472656 C 161.949219 315.472656 165.136719 315.03125 168.28125 314.105469 C 170.082031 313.578125 171.753906 313.988281 173.121094 315.324219 C 174.898438 317.054688 177.089844 317.671875 179.453125 317.484375 C 182.097656 317.269531 184.726562 316.824219 187.359375 316.464844 C 190.71875 316.011719 192.996094 313.785156 195.285156 311.582031 C 194.703125 311.742188 194.136719 311.925781 193.628906 312.21875 C 188.84375 314.992188 184.070312 314.328125 179.410156 312.003906 C 177.621094 311.105469 175.851562 310.777344 173.90625 310.921875 C 170.902344 311.144531 167.894531 311.34375 164.890625 311.476562 C 164.039062 311.515625 163.109375 311.453125 162.316406 311.167969 C 157.652344 309.507812 153.035156 307.714844 148.367188 306.0625 C 146.207031 305.300781 144.003906 304.640625 141.765625 304.148438 C 140.148438 303.792969 138.636719 304.238281 137.582031 305.78125 C 137.835938 305.972656 138.007812 306.136719 138.214844 306.238281 C 142.441406 308.25 146.632812 310.359375 150.925781 312.214844 C 152.890625 313.054688 154.667969 313.738281 154.007812 316.347656 Z M 235.617188 346.175781 C 235.746094 346.273438 235.867188 346.371094 235.992188 346.46875 C 238.691406 344.621094 241.363281 342.734375 243.644531 340.34375 C 245.085938 338.832031 245.871094 337.1875 244.640625 335.144531 C 244.460938 334.847656 244.441406 334.464844 244.316406 334.132812 C 243.789062 332.765625 244.007812 331.484375 244.734375 330.25 C 246.222656 327.726562 247.699219 325.1875 249.203125 322.667969 C 249.808594 321.65625 250.472656 320.675781 251.183594 319.566406 C 248.824219 318.179688 247.28125 316.296875 246.460938 313.816406 C 245.65625 311.398438 244.730469 309.050781 243.019531 307.074219 C 242.492188 306.46875 242.089844 305.65625 241.886719 304.871094 C 241.429688 303.152344 241.125 301.390625 240.773438 299.640625 C 240.539062 298.484375 240.339844 297.320312 239.296875 296.378906 C 238.871094 297.269531 238.597656 298.117188 238.113281 298.828125 C 237.183594 300.179688 237.109375 301.371094 237.839844 302.941406 C 238.550781 304.480469 238.671875 306.296875 239.027344 307.996094 C 239.195312 308.800781 239.289062 309.511719 240.296875 309.878906 C 241.300781 310.242188 242.160156 311 243.082031 311.574219 C 243.015625 311.6875 242.957031 311.800781 242.890625 311.910156 C 241.957031 311.574219 241.027344 311.234375 240.097656 310.898438 C 239.992188 310.933594 239.882812 310.976562 239.773438 311.011719 C 242.371094 314.144531 241.761719 317.570312 240.710938 320.886719 C 242.152344 321.472656 243.332031 321.949219 244.503906 322.425781 C 244.464844 322.554688 244.421875 322.679688 244.382812 322.808594 C 243.234375 322.5 242.089844 322.195312 241.234375 321.96875 C 240.308594 324.074219 239.378906 326.183594 238.527344 328.125 C 239.832031 329.300781 241.140625 330.382812 242.332031 331.589844 C 243.566406 332.835938 243.707031 333.980469 242.761719 335.464844 C 241.132812 338.003906 239.398438 340.46875 237.71875 342.96875 C 236.996094 344.027344 236.3125 345.109375 235.617188 346.175781 Z M 235.472656 244.636719 C 236.332031 242.175781 238.148438 240.894531 240.269531 239.96875 C 241.105469 239.597656 241.972656 239.304688 242.808594 238.9375 C 245.101562 237.9375 247.464844 237.039062 249.242188 235.195312 C 249.8125 234.605469 250.210938 233.851562 250.816406 232.980469 C 250.234375 232.976562 250 232.992188 249.769531 232.976562 C 247.011719 232.773438 244.234375 232.691406 241.496094 232.328125 C 237.183594 231.75 232.898438 230.5625 228.539062 231.855469 C 225.984375 232.621094 223.472656 233.523438 220.945312 234.363281 C 220.953125 234.515625 220.960938 234.671875 220.96875 234.820312 C 226.269531 237.277344 230.945312 240.652344 235.472656 244.636719 Z M 226.339844 330.941406 C 229.765625 335.417969 232.414062 340.195312 235.164062 345.109375 C 235.882812 343.988281 236.453125 343.09375 237.042969 342.210938 C 238.675781 339.773438 240.316406 337.347656 241.945312 334.910156 C 242.496094 334.082031 242.441406 333.257812 241.835938 332.488281 C 240.957031 331.367188 239.875 330.542969 238.449219 330.230469 C 234.320312 329.3125 230.386719 330.894531 226.339844 330.941406 Z M 224.976562 238.539062 C 226.289062 240.164062 227.605469 241.789062 228.929688 243.410156 C 229.894531 244.59375 231.207031 245.53125 231.480469 247.191406 C 231.519531 247.441406 231.847656 247.683594 232.097656 247.851562 C 234.605469 249.582031 237.125 251.300781 239.648438 253.015625 C 240.601562 253.664062 241.570312 254.285156 242.539062 254.917969 C 242.625 254.808594 242.710938 254.691406 242.796875 254.578125 C 237.875 248.132812 232.070312 242.636719 224.976562 238.539062 Z M 255.207031 268.820312 C 255.105469 268.914062 255.015625 269.003906 254.914062 269.09375 C 256.929688 270.671875 258.847656 272.410156 260.980469 273.808594 C 265.730469 276.914062 271.097656 278.167969 276.667969 279.023438 C 281.753906 279.804688 287.125 279.28125 291.878906 282.035156 C 292.160156 281.628906 292.417969 281.261719 292.625 280.957031 C 290.609375 280.21875 288.734375 279.472656 286.8125 278.847656 C 282.382812 277.402344 277.757812 277.226562 273.160156 277.007812 C 267.9375 276.753906 263.386719 274.730469 259.152344 271.859375 C 257.785156 270.925781 256.519531 269.835938 255.207031 268.820312 Z M 215.714844 304.03125 C 209.15625 304.121094 201.953125 305.539062 195.828125 311.199219 C 196.925781 310.804688 197.703125 310.503906 198.492188 310.246094 C 200.359375 309.640625 202.257812 309.109375 204.105469 308.441406 C 205.996094 307.757812 207.832031 306.914062 209.722656 306.199219 C 212.015625 305.328125 214.34375 304.519531 215.714844 304.03125 Z M 215.714844 304.03125 " fill-opacity="1" fill-rule="nonzero"/></g></g></g><g clip-path="url(#b3dc84be32)"><g clip-path="url(#b14a525bb7)"><g clip-path="url(#0bfa19a157)"><path fill="#2291e8" d="M 74.03125 219.117188 C 73.339844 219.15625 72.617188 219.335938 71.953125 219.21875 C 69.148438 218.722656 66.335938 218.207031 63.558594 217.570312 C 60.390625 216.84375 57.269531 215.941406 54.105469 215.207031 C 53.285156 215.011719 52.378906 215.167969 51.511719 215.214844 C 50.863281 215.25 50.214844 215.371094 49.371094 215.480469 C 50.429688 214.367188 52.316406 213.882812 54.152344 214.320312 C 57.660156 215.15625 61.128906 216.179688 64.644531 216.960938 C 67.578125 217.617188 70.566406 218.046875 73.527344 218.578125 C 73.699219 218.609375 73.859375 218.6875 74.027344 218.738281 C 74.03125 218.867188 74.035156 218.992188 74.03125 219.117188 Z M 74.03125 219.117188 " fill-opacity="1" fill-rule="nonzero"/></g></g></g><g clip-path="url(#e75549bcf3)"><g clip-path="url(#47008e78f6)"><g clip-path="url(#3cf416282a)"><path fill="#2291e8" d="M 233.804688 339.0625 C 232.386719 336.867188 231.179688 334.574219 230.535156 332.023438 C 230.65625 331.964844 230.777344 331.90625 230.898438 331.847656 C 232.027344 334.183594 233.148438 336.511719 234.277344 338.851562 C 234.121094 338.914062 233.964844 338.988281 233.804688 339.0625 Z M 233.804688 339.0625 " fill-opacity="1" fill-rule="nonzero"/></g></g></g><g fill="#fafafa" fill-opacity="1"><g transform="translate(65.293916, 216.483637)"><g><path d="M 9.046875 -41.828125 C 6.984375 -41.828125 5.285156 -42.488281 3.953125 -43.8125 C 2.617188 -45.144531 1.953125 -46.84375 1.953125 -48.90625 C 1.953125 -51.019531 2.617188 -52.726562 3.953125 -54.03125 C 5.285156 -55.332031 6.984375 -55.984375 9.046875 -55.984375 C 11.109375 -55.984375 12.800781 -55.332031 14.125 -54.03125 C 15.457031 -52.726562 16.125 -51.019531 16.125 -48.90625 C 16.125 -46.894531 15.457031 -45.210938 14.125 -43.859375 C 12.800781 -42.503906 11.109375 -41.828125 9.046875 -41.828125 Z M 3.171875 0 C 2.816406 0 2.535156 -0.0976562 2.328125 -0.296875 C 2.128906 -0.503906 2.03125 -0.78125 2.03125 -1.125 L 2.03125 -38.0625 C 2.03125 -38.40625 2.128906 -38.675781 2.328125 -38.875 C 2.535156 -39.082031 2.816406 -39.1875 3.171875 -39.1875 L 15.078125 -39.1875 C 15.421875 -39.1875 15.691406 -39.082031 15.890625 -38.875 C 16.097656 -38.675781 16.203125 -38.40625 16.203125 -38.0625 L 16.203125 -1.125 C 16.203125 -0.78125 16.097656 -0.503906 15.890625 -0.296875 C 15.691406 -0.0976562 15.421875 0 15.078125 0 Z M 3.171875 0 "/></g></g></g><g fill="#fafafa" fill-opacity="1"><g transform="translate(86.846173, 216.483637)"><g><path d="M 3.625 0 C 3.269531 0 2.988281 -0.0976562 2.78125 -0.296875 C 2.582031 -0.503906 2.484375 -0.78125 2.484375 -1.125 L 2.484375 -51.625 C 2.484375 -51.976562 2.582031 -52.253906 2.78125 -52.453125 C 2.988281 -52.648438 3.269531 -52.75 3.625 -52.75 L 15.53125 -52.75 C 15.875 -52.75 16.144531 -52.648438 16.34375 -52.453125 C 16.550781 -52.253906 16.65625 -51.976562 16.65625 -51.625 L 16.65625 -12.578125 C 16.65625 -12.285156 16.804688 -12.140625 17.109375 -12.140625 L 36.015625 -12.140625 C 36.367188 -12.140625 36.644531 -12.035156 36.84375 -11.828125 C 37.050781 -11.628906 37.15625 -11.351562 37.15625 -11 L 37.15625 -1.125 C 37.15625 -0.78125 37.050781 -0.503906 36.84375 -0.296875 C 36.644531 -0.0976562 36.367188 0 36.015625 0 Z M 3.625 0 "/></g></g></g><g fill="#fafafa" fill-opacity="1"><g transform="translate(128.744964, 216.483637)"><g><path d="M 36.703125 -24.421875 C 36.796875 -22.410156 36.84375 -20.875 36.84375 -19.8125 L 36.78125 -17.1875 C 36.78125 -16.425781 36.398438 -16.046875 35.640625 -16.046875 L 16.421875 -16.046875 C 16.171875 -16.046875 16.046875 -15.945312 16.046875 -15.75 C 16.046875 -15.195312 16.148438 -14.617188 16.359375 -14.015625 C 16.910156 -12.304688 18.039062 -11.453125 19.75 -11.453125 C 21.351562 -11.453125 22.457031 -12.054688 23.0625 -13.265625 C 23.457031 -13.921875 23.929688 -14.171875 24.484375 -14.015625 L 35.265625 -11.984375 C 35.617188 -11.929688 35.867188 -11.78125 36.015625 -11.53125 C 36.171875 -11.28125 36.195312 -10.976562 36.09375 -10.625 C 34.84375 -6.957031 32.859375 -4.164062 30.140625 -2.25 C 27.429688 -0.34375 24.066406 0.609375 20.046875 0.609375 C 14.972656 0.609375 11.003906 -0.457031 8.140625 -2.59375 C 5.273438 -4.726562 3.363281 -7.882812 2.40625 -12.0625 C 1.90625 -14.21875 1.65625 -16.726562 1.65625 -19.59375 C 1.550781 -21.75 1.703125 -23.984375 2.109375 -26.296875 C 2.765625 -30.421875 4.609375 -33.703125 7.640625 -36.140625 C 10.679688 -38.578125 14.488281 -39.796875 19.0625 -39.796875 C 22.382812 -39.796875 25.335938 -39.140625 27.921875 -37.828125 C 30.503906 -36.523438 32.5625 -34.703125 34.09375 -32.359375 C 35.632812 -30.023438 36.503906 -27.378906 36.703125 -24.421875 Z M 19.21875 -27.65625 C 17.613281 -27.65625 16.609375 -26.75 16.203125 -24.9375 L 16.046875 -23.65625 C 16.046875 -23.351562 16.171875 -23.203125 16.421875 -23.203125 L 22 -23.203125 C 22.25 -23.203125 22.375 -23.351562 22.375 -23.65625 L 22.234375 -24.9375 C 22.078125 -25.789062 21.734375 -26.457031 21.203125 -26.9375 C 20.679688 -27.414062 20.019531 -27.65625 19.21875 -27.65625 Z M 19.21875 -27.65625 "/></g></g></g><g fill="#fafafa" fill-opacity="1"><g transform="translate(170.342339, 216.483637)"><g><path d="M 18.53125 -39.796875 C 21.851562 -39.796875 24.84375 -39.238281 27.5 -38.125 C 30.164062 -37.019531 32.25 -35.488281 33.75 -33.53125 C 35.257812 -31.570312 36.015625 -29.390625 36.015625 -26.984375 L 36.015625 -1.125 C 36.015625 -0.78125 35.914062 -0.503906 35.71875 -0.296875 C 35.519531 -0.0976562 35.242188 0 34.890625 0 L 22.984375 0 C 22.628906 0 22.351562 -0.0976562 22.15625 -0.296875 C 21.957031 -0.503906 21.859375 -0.78125 21.859375 -1.125 L 21.859375 -3.171875 C 21.859375 -3.367188 21.796875 -3.476562 21.671875 -3.5 C 21.546875 -3.53125 21.429688 -3.441406 21.328125 -3.234375 C 19.671875 -0.671875 16.753906 0.609375 12.578125 0.609375 C 9.160156 0.609375 6.359375 -0.269531 4.171875 -2.03125 C 1.992188 -3.789062 0.90625 -6.753906 0.90625 -10.921875 C 0.90625 -15.347656 2.207031 -18.4375 4.8125 -20.1875 C 7.425781 -21.945312 11.375 -22.828125 16.65625 -22.828125 L 21.40625 -22.828125 C 21.707031 -22.828125 21.859375 -22.976562 21.859375 -23.28125 L 21.859375 -24.796875 C 21.859375 -25.648438 21.566406 -26.335938 20.984375 -26.859375 C 20.410156 -27.390625 19.617188 -27.65625 18.609375 -27.65625 C 17.960938 -27.65625 17.382812 -27.515625 16.875 -27.234375 C 16.375 -26.960938 16 -26.601562 15.75 -26.15625 C 15.601562 -25.800781 15.425781 -25.546875 15.21875 -25.390625 C 15.019531 -25.242188 14.769531 -25.195312 14.46875 -25.25 L 2.484375 -26.078125 C 1.734375 -26.171875 1.359375 -26.492188 1.359375 -27.046875 C 1.503906 -29.566406 2.332031 -31.789062 3.84375 -33.71875 C 5.351562 -35.65625 7.390625 -37.148438 9.953125 -38.203125 C 12.515625 -39.265625 15.375 -39.796875 18.53125 -39.796875 Z M 17.9375 -9.421875 C 19.039062 -9.421875 19.96875 -9.722656 20.71875 -10.328125 C 21.476562 -10.929688 21.859375 -11.757812 21.859375 -12.8125 L 21.859375 -14.25 C 21.859375 -14.539062 21.707031 -14.6875 21.40625 -14.6875 L 18.84375 -14.6875 C 17.738281 -14.6875 16.867188 -14.445312 16.234375 -13.96875 C 15.609375 -13.5 15.296875 -12.835938 15.296875 -11.984375 C 15.296875 -11.179688 15.535156 -10.550781 16.015625 -10.09375 C 16.492188 -9.644531 17.132812 -9.421875 17.9375 -9.421875 Z M 17.9375 -9.421875 "/></g></g></g><g fill="#fafafa" fill-opacity="1"><g transform="translate(211.788987, 216.483637)"><g><path d="M 23.28125 -39.71875 C 24.6875 -39.71875 25.894531 -39.441406 26.90625 -38.890625 C 27.351562 -38.640625 27.53125 -38.160156 27.4375 -37.453125 L 25.625 -25.703125 C 25.570312 -25.296875 25.429688 -25.039062 25.203125 -24.9375 C 24.984375 -24.84375 24.671875 -24.84375 24.265625 -24.9375 C 23.660156 -25.09375 22.957031 -25.171875 22.15625 -25.171875 C 21.25 -25.171875 20.46875 -25.070312 19.8125 -24.875 C 18.8125 -24.519531 17.972656 -23.953125 17.296875 -23.171875 C 16.617188 -22.390625 16.28125 -21.445312 16.28125 -20.34375 L 16.28125 -1.203125 C 16.28125 -0.847656 16.175781 -0.570312 15.96875 -0.375 C 15.769531 -0.175781 15.492188 -0.078125 15.140625 -0.078125 L 3.234375 -0.078125 C 2.890625 -0.078125 2.613281 -0.175781 2.40625 -0.375 C 2.207031 -0.570312 2.109375 -0.847656 2.109375 -1.203125 L 2.109375 -38.0625 C 2.109375 -38.40625 2.207031 -38.675781 2.40625 -38.875 C 2.613281 -39.082031 2.890625 -39.1875 3.234375 -39.1875 L 15.140625 -39.1875 C 15.492188 -39.1875 15.769531 -39.082031 15.96875 -38.875 C 16.175781 -38.675781 16.28125 -38.40625 16.28125 -38.0625 L 16.28125 -36.40625 C 16.28125 -36.195312 16.328125 -36.066406 16.421875 -36.015625 C 16.523438 -35.972656 16.628906 -36.023438 16.734375 -36.171875 C 18.335938 -38.535156 20.519531 -39.71875 23.28125 -39.71875 Z M 23.28125 -39.71875 "/></g></g></g><g fill="#fafafa" fill-opacity="1"><g transform="translate(243.213089, 216.483637)"><g><path d="M 24.34375 -39.796875 C 28.113281 -39.796875 31.050781 -38.578125 33.15625 -36.140625 C 35.269531 -33.703125 36.328125 -30.320312 36.328125 -26 L 36.328125 -1.125 C 36.328125 -0.78125 36.222656 -0.503906 36.015625 -0.296875 C 35.816406 -0.0976562 35.539062 0 35.1875 0 L 23.28125 0 C 22.9375 0 22.660156 -0.0976562 22.453125 -0.296875 C 22.253906 -0.503906 22.15625 -0.78125 22.15625 -1.125 L 22.15625 -23.96875 C 22.15625 -25.070312 21.890625 -25.960938 21.359375 -26.640625 C 20.835938 -27.316406 20.148438 -27.65625 19.296875 -27.65625 C 18.335938 -27.65625 17.59375 -27.328125 17.0625 -26.671875 C 16.539062 -26.023438 16.28125 -25.125 16.28125 -23.96875 L 16.28125 -1.125 C 16.28125 -0.78125 16.175781 -0.503906 15.96875 -0.296875 C 15.769531 -0.0976562 15.492188 0 15.140625 0 L 3.234375 0 C 2.890625 0 2.613281 -0.0976562 2.40625 -0.296875 C 2.207031 -0.503906 2.109375 -0.78125 2.109375 -1.125 L 2.109375 -38.0625 C 2.109375 -38.40625 2.207031 -38.675781 2.40625 -38.875 C 2.613281 -39.082031 2.890625 -39.1875 3.234375 -39.1875 L 15.140625 -39.1875 C 15.492188 -39.1875 15.769531 -39.082031 15.96875 -38.875 C 16.175781 -38.675781 16.28125 -38.40625 16.28125 -38.0625 L 16.28125 -36.171875 C 16.28125 -35.972656 16.34375 -35.875 16.46875 -35.875 C 16.59375 -35.875 16.753906 -35.972656 16.953125 -36.171875 C 18.609375 -38.585938 21.070312 -39.796875 24.34375 -39.796875 Z M 24.34375 -39.796875 "/></g></g></g><g fill="#fafafa" fill-opacity="1"><g transform="translate(284.885829, 216.483637)"><g><path d="M 7.90625 -18.6875 C 7.5625 -18.6875 7.273438 -18.785156 7.046875 -18.984375 C 6.816406 -19.191406 6.703125 -19.46875 6.703125 -19.8125 L 5.34375 -51.625 C 5.34375 -52.375 5.695312 -52.75 6.40625 -52.75 L 18.3125 -52.75 C 19.019531 -52.75 19.375 -52.375 19.375 -51.625 L 18.015625 -19.8125 C 18.015625 -19.46875 17.898438 -19.191406 17.671875 -18.984375 C 17.441406 -18.785156 17.15625 -18.6875 16.8125 -18.6875 Z M 12.140625 0 C 10.078125 0 8.378906 -0.664062 7.046875 -2 C 5.710938 -3.332031 5.046875 -5.023438 5.046875 -7.078125 C 5.046875 -9.191406 5.710938 -10.898438 7.046875 -12.203125 C 8.378906 -13.515625 10.078125 -14.171875 12.140625 -14.171875 C 14.191406 -14.171875 15.882812 -13.515625 17.21875 -12.203125 C 18.550781 -10.898438 19.21875 -9.191406 19.21875 -7.078125 C 19.21875 -5.066406 18.550781 -3.382812 17.21875 -2.03125 C 15.882812 -0.675781 14.191406 0 12.140625 0 Z M 12.140625 0 "/></g></g></g></svg>